<?xml version="1.0" encoding="UTF-8" standalone="no" ?>
<!DOCTYPE svg PUBLIC "-//W3C//DTD SVG 1.1//EN" "http://www.w3.org/Graphics/SVG/1.1/DTD/svg11.dtd">
<svg xmlns="http://www.w3.org/2000/svg" xmlns:xlink="http://www.w3.org/1999/xlink" version="1.1" width="500" height="500" viewBox="0 0 500 500" xml:space="preserve">
<desc>Created with Fabric.js 3.6.3</desc>
<defs>
</defs>
<g transform="matrix(0.00005 0 0 0.00005 0 0)"  >
<g style=""   >
</g>
</g>
<g transform="matrix(0.00005 0 0 0.00005 0 0)"  >
<g style=""   >
</g>
</g>
<g transform="matrix(0.00005 0 0 0.00005 0 0)"  >
<g style=""   >
</g>
</g>
<g transform="matrix(0.00005 0 0 0.00005 0 0)"  >
<g style=""   >
</g>
</g>
<g transform="matrix(0.00005 0 0 0.00005 0 0)"  >
<g style=""   >
</g>
</g>
<g transform="matrix(0.00005 0 0 0.00005 0 0)"  >
<g style=""   >
</g>
</g>
<g transform="matrix(0.00005 0 0 0.00005 0 0)"  >
<g style=""   >
</g>
</g>
<g transform="matrix(0.00005 0 0 0.00005 0 0)"  >
<g style=""   >
</g>
</g>
<g transform="matrix(0.00005 0 0 0.00005 0 0)"  >
<g style=""   >
</g>
</g>
<g transform="matrix(0.00005 0 0 0.00005 0 0)"  >
<g style=""   >
</g>
</g>
<g transform="matrix(0.00005 0 0 0.00005 0 0)"  >
<g style=""   >
</g>
</g>
<g transform="matrix(0.00005 0 0 0.00005 0 0)"  >
<g style=""   >
</g>
</g>
<g transform="matrix(0.00005 0 0 0.00005 0 0)"  >
<g style=""   >
</g>
</g>
<g transform="matrix(0.00005 0 0 0.00005 0 0)"  >
<g style=""   >
</g>
</g>
<g transform="matrix(0.00005 0 0 0.00005 0 0)"  >
<g style=""   >
</g>
</g>
<g transform="matrix(0.00005 0 0 0.00005 0 0)"  >
<g style=""   >
</g>
</g>
<g transform="matrix(0.00005 0 0 0.00005 0 0)"  >
<g style=""   >
</g>
</g>
<g transform="matrix(0.00005 0 0 0.00005 0 0)"  >
<g style=""   >
</g>
</g>
<g transform="matrix(0.00005 0 0 0.00005 0 0)"  >
<g style=""   >
</g>
</g>
<g transform="matrix(0.00005 0 0 0.00005 0 0)"  >
<g style=""   >
</g>
</g>
<g transform="matrix(0.00005 0 0 0.00005 0 0)"  >
<g style=""   >
</g>
</g>
<g transform="matrix(0.00005 0 0 0.00005 0 0)"  >
<g style=""   >
</g>
</g>
<g transform="matrix(0.00005 0 0 0.00005 0 0)"  >
<g style=""   >
</g>
</g>
<g transform="matrix(0.00005 0 0 0.00005 0 0)"  >
<g style=""   >
</g>
</g>
<g transform="matrix(0.00005 0 0 0.00005 0 0)"  >
<g style=""   >
</g>
</g>
<g transform="matrix(0.00005 0 0 0.00005 0 0)"  >
<g style=""   >
</g>
</g>
<g transform="matrix(0.00005 0 0 0.00005 0 0)"  >
<g style=""   >
</g>
</g>
<g transform="matrix(0.00005 0 0 0.00005 0 0)"  >
<g style=""   >
</g>
</g>
<g transform="matrix(0.317500220406645 0 0 0.317500220406645 83.80981318784954 234.90264116103555)"  >
<g style=""   >
		<g transform="matrix(0.6800850136399711 -1.6657e-16 1.6657e-16 0.6800850136399711 -2.842171e-14 -5.684342e-14)"  >
<path style="stroke: none; stroke-width: 0; stroke-dasharray: none; stroke-linecap: round; stroke-dashoffset: 0; stroke-linejoin: round; stroke-miterlimit: 4; fill: rgb(0,0,0); fill-rule: nonzero; opacity: 1;"  transform=" translate(-347.214464, -408.15557)" d="m 239.32338 158.15557 c -78.60067 0 -142.108912 63.50635 -142.108912 142.10701 l 0 215.78407 c 0 78.60067 63.508242 142.10892 142.108912 142.10892 l 215.78217 0 c 78.60067 0 142.10891 -63.50825 142.10891 -142.10892 l 0 -215.78407 c 0 -78.60066 -63.50824 -142.10701 -142.10891 -142.10701 l -215.78217 0 z" stroke-linecap="round" />
</g>
		<g transform="matrix(2.707390956393842 0 0 2.707390956393842 3.262074177267138 -6.000000000000021)"  >
<path style="stroke: none; stroke-width: 0; stroke-dasharray: none; stroke-linecap: butt; stroke-dashoffset: 0; stroke-linejoin: miter; stroke-miterlimit: 4; fill: rgb(242,242,242); fill-rule: nonzero; opacity: 1;"  transform=" translate(-50.01707210100389, -49.992014649006265)" d="m 94.801 28.699 c -0.14062 -0.10156 -0.32031 -0.12109 -0.48047 -0.050781 l -9.7695 4.3281 c -0.16016 0.070313 -0.26953 0.21875 -0.28125 0.39063 c -0.019531 0.17187 0.050781 0.33984 0.19922 0.44141 l 3.2812 2.3906 l -19.82 25.91 c -0.55078 -0.21875 -1.1484 -0.33984 -1.7695 -0.33984 c -0.71875 0 -1.3984 0.16016 -2.0117 0.44141 l -8.8281 -9.6914 c 0.42969 -0.71875 0.67969 -1.5703 0.67969 -2.4688 c 0 -2.6484 -2.1602 -4.8086 -4.8086 -4.8086 c -2.6484 0 -4.8086 2.1602 -4.8086 4.8086 c 0 0.89062 0.25 1.7305 0.67188 2.4492 l -7.0703 7.7383 c -0.80078 -0.57812 -1.7812 -0.92969 -2.8398 -0.92969 c -0.92188 0 -1.7891 0.26172 -2.5195 0.71875 l -9.1719 -10.059 c 0.37891 -0.69141 0.60156 -1.4805 0.60156 -2.3203 c 0 -2.6484 -2.1602 -4.8086 -4.8086 -4.8086 c -2.6484 0 -4.8086 2.1602 -4.8086 4.8086 c 0 0.94922 0.28125 1.8398 0.76172 2.5781 l -11.82 12.949 c -0.51172 0.55859 -0.46875 1.4414 0.089844 1.9492 c 0.26953 0.23828 0.60156 0.35938 0.92969 0.35938 c 0.37109 0 0.75 -0.14844 1.0195 -0.44922 l 11.871 -13 c 0.60156 0.26953 1.2617 0.42188 1.9609 0.42188 c 0.80859 0 1.5703 -0.19922 2.2383 -0.55078 l 9.3008 10.199 c -0.28125 0.60938 -0.44141 1.3008 -0.44141 2.0195 c 0 2.6484 2.1602 4.8086 4.8086 4.8086 s 4.8086 -2.1602 4.8086 -4.8086 c 0 -0.57031 -0.10156 -1.1211 -0.28125 -1.6289 l 7.4102 -8.1211 c 0.64062 0.30859 1.3516 0.48828 2.1094 0.48828 c 0.76172 0 1.4609 -0.17188 2.0898 -0.48047 l 8.7891 9.6484 c -0.46094 0.73828 -0.73047 1.6094 -0.73047 2.5391 c 0 2.6484 2.1602 4.8086 4.8086 4.8086 c 2.6484 0 4.8086 -2.1602 4.8086 -4.8086 c 0 -1.0195 -0.32031 -1.9688 -0.87109 -2.75 l 19.891 -26 l 3.1289 2.2812 c 0.078124 0.058594 0.17969 0.089844 0.28125 0.089844 c 0.070312 0 0.12891 -0.011718 0.19922 -0.039062 c 0.16016 -0.070313 0.26953 -0.21875 0.28125 -0.39062 l 1.1289 -10.629 c 0.019532 -0.17187 -0.050781 -0.33984 -0.19922 -0.44141 z" stroke-linecap="round" />
</g>
</g>
</g>
<g transform="matrix(0.5341129357751369 0 0 0.5341129357751369 305.21451901242347 234.90264116103555)"  >
<g style=""   >
		<g transform="matrix(1 0 0 1 5.684342e-14 -18.727626067596496)" style=""  ><path fill="#000000" opacity="1" d="M-217.82 33.08L-229.86 33.08L-229.86 1.72L-260.09 1.72L-260.09 33.08L-272.07 33.08L-272.07-38.08L-260.09-38.08L-260.09-9.24L-229.86-9.24L-229.86-38.08L-217.82-38.08L-217.82 33.08Z"/><path fill="#000000" opacity="1" d="M-154.38 6.24L-154.38 6.24Q-154.38 12.82-155.79 18.07Q-157.20 23.31-160.21 27.01Q-163.22 30.71-167.90 32.69Q-172.58 34.67-179.11 34.67L-179.11 34.67Q-185.69 34.67-190.42 32.67Q-195.15 30.66-198.16 26.96Q-201.17 23.26-202.58 18.01Q-203.99 12.77-203.99 6.24L-203.99 6.24Q-203.99-0.39-202.55-5.69Q-201.11-10.98-198.11-14.71Q-195.10-18.44-190.39-20.42Q-185.69-22.40-179.11-22.40L-179.11-22.40Q-172.58-22.40-167.90-20.42Q-163.22-18.44-160.21-14.71Q-157.20-10.98-155.79-5.69Q-154.38-0.39-154.38 6.24ZM-165.84 6.24L-165.84 6.24Q-165.84-3.38-168.95-8.05Q-172.06-12.73-179.11-12.73L-179.11-12.73Q-186.15-12.73-189.37-8.05Q-192.58-3.38-192.58 6.24L-192.58 6.24Q-192.58 15.60-189.42 20.33Q-186.25 25.06-179.11 25.06L-179.11 25.06Q-172.17 25.06-169.00 20.33Q-165.84 15.60-165.84 6.24Z"/><path fill="#000000" opacity="1" d="M-107.79-20.60L-110.00-10.01Q-110.83-10.32-112.14-10.57Q-113.45-10.83-114.84-10.83L-114.84-10.83Q-117.10-10.83-119.11-10.21Q-121.11-9.60-122.94-8.54Q-124.76-7.49-126.46-6.05Q-128.15-4.61-129.80-3.02L-129.80-3.02L-129.80 33.08L-140.85 33.08L-140.85-20.86L-129.80-20.86L-129.80-12.63Q-128.05-14.48-126.20-16.13Q-124.35-17.77-122.32-19.01Q-120.29-20.24-118.08-20.96Q-115.87-21.68-113.40-21.68L-113.40-21.68Q-111.50-21.68-110.13-21.40Q-108.77-21.11-107.79-20.60L-107.79-20.60Z"/><path fill="#000000" opacity="1" d="M-86.35-35.05L-86.35-35.05Q-86.35-31.65-87.97-30.34Q-89.59-29.03-92.99-29.03L-92.99-29.03Q-96.69-29.03-98.10-30.57Q-99.52-32.12-99.52-35.05L-99.52-35.05Q-99.52-38.24-98.02-39.65Q-96.53-41.06-92.99-41.06L-92.99-41.06Q-89.44-41.06-87.90-39.67Q-86.35-38.29-86.35-35.05ZM-87.38 33.08L-98.44 33.08L-98.44-20.86L-87.38-20.86L-87.38 33.08Z"/><path fill="#000000" opacity="1" d="M-34.99 33.08L-75.71 33.08L-75.71 24.85L-49.08-11.86L-75.09-11.86L-75.09-20.86L-35.81-20.86L-35.81-12.84L-62.55 24.13L-34.99 24.13L-34.99 33.08Z"/><path fill="#000000" opacity="1" d="M23.57 6.24L23.57 6.24Q23.57 12.82 22.16 18.07Q20.75 23.31 17.74 27.01Q14.73 30.71 10.05 32.69Q5.37 34.67-1.16 34.67L-1.16 34.67Q-7.74 34.67-12.47 32.67Q-17.20 30.66-20.21 26.96Q-23.21 23.26-24.63 18.01Q-26.04 12.77-26.04 6.24L-26.04 6.24Q-26.04-0.39-24.60-5.69Q-23.16-10.98-20.16-14.71Q-17.15-18.44-12.44-20.42Q-7.74-22.40-1.16-22.40L-1.16-22.40Q5.37-22.40 10.05-20.42Q14.73-18.44 17.74-14.71Q20.75-10.98 22.16-5.69Q23.57-0.39 23.57 6.24ZM12.11 6.24L12.11 6.24Q12.11-3.38 9.00-8.05Q5.89-12.73-1.16-12.73L-1.16-12.73Q-8.20-12.73-11.41-8.05Q-14.63-3.38-14.63 6.24L-14.63 6.24Q-14.63 15.60-11.47 20.33Q-8.30 25.06-1.16 25.06L-1.16 25.06Q5.78 25.06 8.95 20.33Q12.11 15.60 12.11 6.24Z"/><path fill="#000000" opacity="1" d="M82.45 33.08L71.39 33.08L71.39 2.33Q71.39-1.68 71.13-4.48Q70.88-7.28 70.03-9.03Q69.18-10.78 67.64-11.55Q66.10-12.32 63.52-12.32L63.52-12.32Q61.83-12.32 59.90-11.65Q57.97-10.98 55.99-9.83Q54.01-8.67 52.01-7.15Q50.00-5.64 48.15-3.99L48.15-3.99L48.15 33.08L37.10 33.08L37.10-20.86L48.15-20.86L48.15-13.35Q49.90-15.10 52.06-16.74Q54.22-18.39 56.61-19.65Q59.00-20.91 61.54-21.65Q64.09-22.40 66.66-22.40L66.66-22.40Q71.19-22.40 74.22-21.11Q77.25-19.83 79.08-17.33Q80.90-14.84 81.67-11.22Q82.45-7.59 82.45-2.91L82.45-2.91L82.45 33.08Z"/><path fill="#000000" opacity="1" d="M149.54-27.13L126.82-27.13L126.82 33.08L114.79 33.08L114.79-27.13L92.06-27.13L92.06-38.08L149.54-38.08L149.54-27.13Z"/><path fill="#000000" opacity="1" d="M208.52 13.08L208.52 13.08Q208.52 19.09 206.38 23.18Q204.25 27.27 200.60 29.81Q196.95 32.36 192.09 33.46Q187.23 34.57 181.78 34.57L181.78 34.57Q176.02 34.57 171.70 33.49Q167.38 32.41 164.15 30.56Q160.91 28.71 158.62 26.24Q156.33 23.77 154.63 20.94L154.63 20.94L164.09 14.11Q165.38 16.11 166.95 17.89Q168.52 19.66 170.60 21.00Q172.68 22.33 175.46 23.13Q178.23 23.93 181.88 23.93L181.88 23.93Q184.61 23.93 187.21 23.41Q189.80 22.90 191.81 21.72Q193.81 20.53 195.02 18.63Q196.23 16.73 196.23 13.90L196.23 13.90Q196.23 11.23 195.07 9.43Q193.92 7.63 191.96 6.39Q190.01 5.16 187.39 4.34Q184.76 3.51 181.78 2.74L181.78 2.74Q176.33 1.36 171.65-0.11Q166.97-1.58 163.53-3.84Q160.08-6.10 158.10-9.60Q156.12-13.09 156.12-18.54L156.12-18.54Q156.12-23.38 157.77-27.26Q159.42-31.14 162.60-33.89Q165.79-36.64 170.55-38.11Q175.30-39.57 181.47-39.57L181.47-39.57Q186.10-39.57 189.93-38.72Q193.76-37.88 196.87-36.26Q199.98-34.64 202.45-32.25Q204.92-29.85 206.77-26.82L206.77-26.82L197.46-19.88Q194.64-24.40 190.78-26.67Q186.92-28.93 181.37-28.93L181.37-28.93Q175.35-28.93 171.83-26.46Q168.31-23.99 168.31-19.47L168.31-19.47Q168.31-17.21 169.26-15.69Q170.21-14.17 172.19-13.04Q174.17-11.91 177.18-11.01Q180.19-10.11 184.30-9.13L184.30-9.13Q187.49-8.36 190.50-7.49Q193.50-6.61 196.20-5.46Q198.90-4.30 201.17-2.73Q203.43-1.16 205.05 1.05Q206.67 3.26 207.59 6.21Q208.52 9.17 208.52 13.08Z"/><path fill="#000000" opacity="1" d="M275.31-2.50L275.31-2.50Q275.31 7.99 273.15 14.88Q270.99 21.77 266.69 25.80Q262.40 29.84 256.08 31.46Q249.75 33.08 241.42 33.08L241.42 33.08L221.53 33.08L221.53-38.08L241.22-38.08Q249.75-38.08 256.15-36.28Q262.56-34.48 266.82-30.32Q271.09-26.15 273.20-19.34Q275.31-12.53 275.31-2.50ZM262.76-2.60L262.76-2.60Q262.76-9.80 261.63-14.53Q260.50-19.26 257.88-22.06Q255.25-24.87 250.94-26.00Q246.62-27.13 240.24-27.13L240.24-27.13L233.51-27.13L233.51 22.13L240.24 22.13Q246.72 22.13 251.04 20.92Q255.36 19.71 257.98 16.86Q260.60 14.00 261.68 9.25Q262.76 4.49 262.76-2.60Z"/></g>		<g transform="matrix(1 0 0 1 3.1047947540487257 62.00662606759645)" style=""  ><path fill="#000000" opacity="1" d="M-262.51-4.02L-262.51-4.02Q-262.51-2.27-262.91-1.00Q-263.31 0.27-264.16 1.10Q-265.01 1.92-266.33 2.32Q-267.65 2.72-269.50 2.72L-269.50 2.72L-272.64 2.72L-272.64 9.02L-275.91 9.02L-275.91-10.38L-269.39-10.38Q-267.74-10.38-266.46-10.04Q-265.17-9.69-264.30-8.94Q-263.42-8.18-262.97-6.97Q-262.51-5.75-262.51-4.02ZM-265.92-3.99L-265.92-3.99Q-265.92-5.04-266.20-5.72Q-266.49-6.40-267.04-6.79Q-267.58-7.18-268.39-7.34Q-269.20-7.49-270.23-7.49L-270.23-7.49L-272.64-7.49L-272.64-0.16L-270.60-0.16Q-269.36-0.16-268.47-0.29Q-267.58-0.42-267.02-0.81Q-266.45-1.21-266.18-1.97Q-265.92-2.73-265.92-3.99Z"/><path fill="#000000" opacity="1" d="M-250.05-5.61L-250.66-2.73Q-250.88-2.81-251.24-2.88Q-251.59-2.95-251.97-2.95L-251.97-2.95Q-252.59-2.95-253.14-2.78Q-253.68-2.62-254.18-2.33Q-254.68-2.04-255.14-1.65Q-255.60-1.26-256.05-0.82L-256.05-0.82L-256.05 9.02L-259.06 9.02L-259.06-5.68L-256.05-5.68L-256.05-3.44Q-255.57-3.95-255.07-4.40Q-254.57-4.84-254.01-5.18Q-253.46-5.52-252.86-5.71Q-252.25-5.91-251.58-5.91L-251.58-5.91Q-251.06-5.91-250.69-5.83Q-250.32-5.75-250.05-5.61L-250.05-5.61Z"/><path fill="#000000" opacity="1" d="M-235.83 2.30L-245.50 2.30Q-245.48 3.41-245.27 4.26Q-245.05 5.11-244.59 5.67Q-244.13 6.24-243.39 6.54Q-242.65 6.83-241.57 6.83L-241.57 6.83Q-240.57 6.83-239.79 6.49Q-239.01 6.14-238.35 5.32L-238.35 5.32L-236.04 6.89Q-236.46 7.52-236.98 7.99Q-237.50 8.47-238.18 8.79Q-238.87 9.11-239.75 9.28Q-240.62 9.45-241.74 9.45L-241.74 9.45Q-245.26 9.45-246.93 7.51Q-248.61 5.57-248.61 1.78L-248.61 1.78Q-248.61 0.01-248.25-1.45Q-247.89-2.90-247.10-3.93Q-246.31-4.97-245.04-5.54Q-243.76-6.10-241.91-6.10L-241.91-6.10Q-240.27-6.10-239.12-5.61Q-237.96-5.12-237.23-4.23Q-236.50-3.33-236.17-2.07Q-235.83-0.81-235.83 0.72L-235.83 0.72L-235.83 2.30ZM-245.44 0.09L-238.81 0.09Q-238.81-1.75-239.58-2.71Q-240.36-3.67-242.01-3.67L-242.01-3.67Q-242.85-3.67-243.45-3.42Q-244.04-3.18-244.44-2.70Q-244.84-2.22-245.08-1.52Q-245.32-0.82-245.44 0.09L-245.44 0.09Z"/><path fill="#000000" opacity="1" d="M-219.97 9.02L-222.84 9.02L-222.84 7.59Q-223.75 8.40-224.89 8.92Q-226.03 9.45-227.39 9.45L-227.39 9.45Q-228.88 9.45-229.94 8.88Q-231.01 8.32-231.70 7.29Q-232.38 6.27-232.70 4.87Q-233.03 3.47-233.03 1.78L-233.03 1.78Q-233.03 0.27-232.70-1.15Q-232.38-2.57-231.66-3.67Q-230.94-4.77-229.79-5.44Q-228.64-6.10-226.99-6.10L-226.99-6.10Q-225.89-6.10-224.84-5.68Q-223.78-5.25-222.98-4.54L-222.98-4.54L-222.98-11.85L-219.97-11.85L-219.97 9.02ZM-222.98 5.11L-222.98-1.97Q-223.31-2.27-223.71-2.53Q-224.11-2.80-224.56-3.00Q-225.01-3.20-225.49-3.32Q-225.96-3.44-226.45-3.44L-226.45-3.44Q-227.15-3.44-227.79-3.14Q-228.42-2.84-228.89-2.21Q-229.35-1.58-229.64-0.60Q-229.92 0.37-229.92 1.73L-229.92 1.73Q-229.92 4.20-229.10 5.48Q-228.28 6.77-226.68 6.77L-226.68 6.77Q-226.17 6.77-225.66 6.64Q-225.15 6.51-224.67 6.28Q-224.20 6.04-223.76 5.74Q-223.33 5.44-222.98 5.11L-222.98 5.11Z"/><path fill="#000000" opacity="1" d="M-212.24-9.55L-212.24-9.55Q-212.24-8.63-212.69-8.27Q-213.13-7.91-214.05-7.91L-214.05-7.91Q-215.06-7.91-215.45-8.33Q-215.83-8.75-215.83-9.55L-215.83-9.55Q-215.83-10.42-215.43-10.81Q-215.02-11.19-214.05-11.19L-214.05-11.19Q-213.08-11.19-212.66-10.81Q-212.24-10.44-212.24-9.55ZM-212.52 9.02L-215.54 9.02L-215.54-5.68L-212.52-5.68L-212.52 9.02Z"/><path fill="#000000" opacity="1" d="M-198.88 5.29L-196.52 6.83Q-196.91 7.43-197.42 7.92Q-197.92 8.40-198.59 8.74Q-199.25 9.09-200.10 9.27Q-200.95 9.45-202.00 9.45L-202.00 9.45Q-203.85 9.45-205.15 8.89Q-206.46 8.33-207.28 7.31Q-208.11 6.28-208.49 4.87Q-208.87 3.45-208.87 1.73L-208.87 1.73Q-208.87-0.07-208.47-1.52Q-208.07-2.97-207.24-3.98Q-206.41-5.00-205.14-5.55Q-203.86-6.10-202.11-6.10L-202.11-6.10Q-200.25-6.10-198.88-5.46Q-197.50-4.82-196.72-3.50L-196.72-3.50L-199.07-1.91Q-199.56-2.67-200.28-3.07Q-200.99-3.47-202.08-3.47L-202.08-3.47Q-203.98-3.47-204.87-2.22Q-205.76-0.96-205.76 1.73L-205.76 1.73Q-205.76 2.96-205.56 3.91Q-205.36 4.87-204.92 5.51Q-204.48 6.16-203.75 6.49Q-203.02 6.83-201.97 6.83L-201.97 6.83Q-201.48 6.83-201.05 6.75Q-200.63 6.68-200.25 6.49Q-199.87 6.31-199.53 6.02Q-199.20 5.72-198.88 5.29L-198.88 5.29Z"/><path fill="#000000" opacity="1" d="M-186.39 6.55L-185.76 9.02Q-186.39 9.21-187.18 9.33Q-187.97 9.45-188.69 9.45L-188.69 9.45Q-189.89 9.45-190.74 9.16Q-191.59 8.88-192.13 8.28Q-192.67 7.68-192.92 6.76Q-193.17 5.83-193.17 4.57L-193.17 4.57L-193.17-3.23L-195.15-3.23L-195.15-5.68L-193.17-5.68L-193.17-9.78L-190.16-9.78L-190.16-5.68L-186.60-5.68L-186.60-3.23L-190.16-3.23L-190.16 4.11Q-190.16 4.90-190.07 5.44Q-189.98 5.97-189.77 6.31Q-189.56 6.65-189.21 6.80Q-188.87 6.96-188.38 6.96L-188.38 6.96Q-187.89 6.96-187.34 6.84Q-186.80 6.72-186.39 6.55L-186.39 6.55Z"/><path fill="#000000" opacity="1" d="M-179.91-9.55L-179.91-9.55Q-179.91-8.63-180.36-8.27Q-180.80-7.91-181.72-7.91L-181.72-7.91Q-182.73-7.91-183.12-8.33Q-183.50-8.75-183.50-9.55L-183.50-9.55Q-183.50-10.42-183.10-10.81Q-182.69-11.19-181.72-11.19L-181.72-11.19Q-180.76-11.19-180.33-10.81Q-179.91-10.44-179.91-9.55ZM-180.19 9.02L-183.21 9.02L-183.21-5.68L-180.19-5.68L-180.19 9.02Z"/><path fill="#000000" opacity="1" d="M-163.42 9.02L-166.43 9.02L-166.43 0.64Q-166.43-0.46-166.50-1.22Q-166.57-1.98-166.80-2.46Q-167.04-2.94-167.46-3.15Q-167.88-3.36-168.58-3.36L-168.58-3.36Q-169.04-3.36-169.57-3.18Q-170.09-2.99-170.63-2.68Q-171.17-2.36-171.72-1.95Q-172.26-1.54-172.77-1.09L-172.77-1.09L-172.77 9.02L-175.78 9.02L-175.78-5.68L-172.77-5.68L-172.77-3.64Q-172.29-4.11-171.70-4.56Q-171.11-5.01-170.46-5.36Q-169.81-5.70-169.12-5.90Q-168.42-6.10-167.72-6.10L-167.72-6.10Q-166.49-6.10-165.66-5.75Q-164.84-5.40-164.34-4.72Q-163.84-4.04-163.63-3.06Q-163.42-2.07-163.42-0.79L-163.42-0.79L-163.42 9.02Z"/><path fill="#000000" opacity="1" d="M-146.80-5.68L-146.80 8.74Q-146.80 10.21-147.19 11.30Q-147.58 12.39-148.43 13.11Q-149.27 13.84-150.58 14.19Q-151.90 14.55-153.74 14.55L-153.74 14.55Q-155.43 14.55-156.83 14.21Q-158.22 13.86-159.31 13.23L-159.31 13.23L-158.33 10.80Q-157.38 11.31-156.24 11.64Q-155.10 11.97-153.74 11.97L-153.74 11.97Q-152.67 11.97-151.93 11.79Q-151.19 11.61-150.72 11.22Q-150.25 10.84-150.03 10.22Q-149.81 9.60-149.81 8.74L-149.81 8.74L-149.81 7.26Q-150.64 8.02-151.75 8.52Q-152.85 9.02-154.20 9.02L-154.20 9.02Q-155.67 9.02-156.74 8.46Q-157.81 7.91-158.51 6.91Q-159.20 5.92-159.53 4.55Q-159.86 3.17-159.86 1.52L-159.86 1.52Q-159.86 0.06-159.53-1.31Q-159.20-2.69-158.48-3.75Q-157.76-4.82-156.60-5.46Q-155.45-6.10-153.79-6.10L-153.79-6.10Q-152.63-6.10-151.54-5.64Q-150.44-5.17-149.60-4.38L-149.60-4.38L-149.38-5.68L-146.80-5.68ZM-149.81 4.69L-149.81-1.97Q-150.58-2.64-151.46-3.04Q-152.34-3.44-153.32-3.44L-153.32-3.44Q-154.14-3.44-154.78-3.07Q-155.42-2.70-155.86-2.05Q-156.30-1.40-156.53-0.50Q-156.75 0.40-156.75 1.46L-156.75 1.46Q-156.75 2.57-156.57 3.47Q-156.39 4.38-156.00 5.01Q-155.61 5.65-155.01 6.00Q-154.40 6.35-153.54 6.35L-153.54 6.35Q-152.57 6.35-151.63 5.90Q-150.68 5.46-149.81 4.69L-149.81 4.69Z"/><path fill="#000000" opacity="1" d=""/><path fill="#000000" opacity="1" d="M-127.97 6.55L-127.34 9.02Q-127.97 9.21-128.76 9.33Q-129.55 9.45-130.26 9.45L-130.26 9.45Q-131.47 9.45-132.32 9.16Q-133.16 8.88-133.70 8.28Q-134.24 7.68-134.50 6.76Q-134.75 5.83-134.75 4.57L-134.75 4.57L-134.75-3.23L-136.72-3.23L-136.72-5.68L-134.75-5.68L-134.75-9.78L-131.74-9.78L-131.74-5.68L-128.18-5.68L-128.18-3.23L-131.74-3.23L-131.74 4.11Q-131.74 4.90-131.64 5.44Q-131.55 5.97-131.34 6.31Q-131.13 6.65-130.79 6.80Q-130.45 6.96-129.96 6.96L-129.96 6.96Q-129.47 6.96-128.92 6.84Q-128.37 6.72-127.97 6.55L-127.97 6.55Z"/><path fill="#000000" opacity="1" d="M-112.42 9.02L-115.44 9.02L-115.44 0.64Q-115.44-0.47-115.51-1.24Q-115.59-2.00-115.82-2.47Q-116.05-2.94-116.47-3.15Q-116.90-3.36-117.58-3.36L-117.58-3.36Q-118.04-3.36-118.57-3.18Q-119.10-2.99-119.63-2.68Q-120.17-2.36-120.72-1.95Q-121.27-1.54-121.77-1.09L-121.77-1.09L-121.77 9.02L-124.78 9.02L-124.78-11.85L-121.77-11.85L-121.77-3.64Q-121.30-4.11-120.71-4.56Q-120.12-5.01-119.47-5.36Q-118.81-5.70-118.12-5.90Q-117.43-6.10-116.73-6.10L-116.73-6.10Q-115.51-6.10-114.68-5.75Q-113.85-5.40-113.36-4.72Q-112.86-4.04-112.64-3.06Q-112.42-2.07-112.42-0.79L-112.42-0.79L-112.42 9.02Z"/><path fill="#000000" opacity="1" d="M-96.08 2.30L-105.75 2.30Q-105.74 3.41-105.52 4.26Q-105.31 5.11-104.84 5.67Q-104.38 6.24-103.65 6.54Q-102.91 6.83-101.83 6.83L-101.83 6.83Q-100.82 6.83-100.04 6.49Q-99.27 6.14-98.61 5.32L-98.61 5.32L-96.29 6.89Q-96.72 7.52-97.23 7.99Q-97.75 8.47-98.44 8.79Q-99.13 9.11-100.00 9.28Q-100.88 9.45-102.00 9.45L-102.00 9.45Q-105.52 9.45-107.19 7.51Q-108.87 5.57-108.87 1.78L-108.87 1.78Q-108.87 0.01-108.51-1.45Q-108.15-2.90-107.36-3.93Q-106.57-4.97-105.29-5.54Q-104.02-6.10-102.17-6.10L-102.17-6.10Q-100.53-6.10-99.37-5.61Q-98.21-5.12-97.49-4.23Q-96.76-3.33-96.42-2.07Q-96.08-0.81-96.08 0.72L-96.08 0.72L-96.08 2.30ZM-105.70 0.09L-99.07 0.09Q-99.07-1.75-99.84-2.71Q-100.61-3.67-102.26-3.67L-102.26-3.67Q-103.11-3.67-103.70-3.42Q-104.30-3.18-104.70-2.70Q-105.10-2.22-105.33-1.52Q-105.57-0.82-105.70 0.09L-105.70 0.09Z"/><path fill="#000000" opacity="1" d=""/><path fill="#000000" opacity="1" d="M-77.12-11.82L-77.81-9.20Q-78.26-9.40-78.79-9.52Q-79.32-9.64-79.84-9.64L-79.84-9.64Q-80.43-9.64-80.82-9.50Q-81.22-9.36-81.45-9.05Q-81.68-8.75-81.77-8.27Q-81.86-7.79-81.86-7.11L-81.86-7.11L-81.86-5.68L-78.72-5.68L-78.72-3.23L-81.86-3.23L-81.86 9.02L-84.87 9.02L-84.87-3.23L-86.88-3.23L-86.88-5.68L-84.87-5.68L-84.87-7.11Q-84.87-8.40-84.61-9.38Q-84.34-10.35-83.75-11.00Q-83.16-11.64-82.22-11.96Q-81.27-12.28-79.90-12.28L-79.90-12.28Q-79.13-12.28-78.41-12.15Q-77.68-12.02-77.12-11.82L-77.12-11.82Z"/><path fill="#000000" opacity="1" d="M-63.92 9.02L-66.94 9.02L-66.94 6.98Q-67.43 7.47-68.01 7.92Q-68.59 8.37-69.24 8.71Q-69.89 9.04-70.59 9.25Q-71.28 9.45-71.98 9.45L-71.98 9.45Q-73.21 9.45-74.04 9.10Q-74.87 8.75-75.37 8.07Q-75.86 7.39-76.07 6.40Q-76.28 5.41-76.28 4.14L-76.28 4.14L-76.28-5.68L-73.27-5.68L-73.27 2.70Q-73.27 3.80-73.20 4.57Q-73.13 5.33-72.91 5.80Q-72.68 6.27-72.26 6.48Q-71.84 6.69-71.15 6.69L-71.15 6.69Q-70.69 6.69-70.17 6.51Q-69.64 6.33-69.09 6.02Q-68.53 5.71-67.99 5.30Q-67.44 4.88-66.94 4.42L-66.94 4.42L-66.94-5.68L-63.92-5.68L-63.92 9.02Z"/><path fill="#000000" opacity="1" d="M-52.40 6.55L-51.77 9.02Q-52.40 9.21-53.20 9.33Q-53.99 9.45-54.70 9.45L-54.70 9.45Q-55.91 9.45-56.76 9.16Q-57.60 8.88-58.14 8.28Q-58.68 7.68-58.93 6.76Q-59.19 5.83-59.19 4.57L-59.19 4.57L-59.19-3.23L-61.16-3.23L-61.16-5.68L-59.19-5.68L-59.19-9.78L-56.17-9.78L-56.17-5.68L-52.61-5.68L-52.61-3.23L-56.17-3.23L-56.17 4.11Q-56.17 4.90-56.08 5.44Q-55.99 5.97-55.78 6.31Q-55.57 6.65-55.23 6.80Q-54.88 6.96-54.39 6.96L-54.39 6.96Q-53.90 6.96-53.36 6.84Q-52.81 6.72-52.40 6.55L-52.40 6.55Z"/><path fill="#000000" opacity="1" d="M-37.12 9.02L-40.13 9.02L-40.13 6.98Q-40.62 7.47-41.20 7.92Q-41.78 8.37-42.43 8.71Q-43.09 9.04-43.78 9.25Q-44.47 9.45-45.17 9.45L-45.17 9.45Q-46.41 9.45-47.23 9.10Q-48.06 8.75-48.56 8.07Q-49.05 7.39-49.27 6.40Q-49.48 5.41-49.48 4.14L-49.48 4.14L-49.48-5.68L-46.46-5.68L-46.46 2.70Q-46.46 3.80-46.39 4.57Q-46.32 5.33-46.10 5.80Q-45.87 6.27-45.45 6.48Q-45.03 6.69-44.35 6.69L-44.35 6.69Q-43.88 6.69-43.36 6.51Q-42.83 6.33-42.28 6.02Q-41.73 5.71-41.18 5.30Q-40.63 4.88-40.13 4.42L-40.13 4.42L-40.13-5.68L-37.12-5.68L-37.12 9.02Z"/><path fill="#000000" opacity="1" d="M-23.68-5.61L-24.28-2.73Q-24.50-2.81-24.86-2.88Q-25.22-2.95-25.60-2.95L-25.60-2.95Q-26.21-2.95-26.76-2.78Q-27.31-2.62-27.80-2.33Q-28.30-2.04-28.76-1.65Q-29.23-1.26-29.67-0.82L-29.67-0.82L-29.67 9.02L-32.69 9.02L-32.69-5.68L-29.67-5.68L-29.67-3.44Q-29.20-3.95-28.69-4.40Q-28.19-4.84-27.63-5.18Q-27.08-5.52-26.48-5.71Q-25.88-5.91-25.20-5.91L-25.20-5.91Q-24.69-5.91-24.31-5.83Q-23.94-5.75-23.68-5.61L-23.68-5.61Z"/><path fill="#000000" opacity="1" d="M-9.45 2.30L-19.12 2.30Q-19.11 3.41-18.89 4.26Q-18.67 5.11-18.21 5.67Q-17.75 6.24-17.01 6.54Q-16.28 6.83-15.20 6.83L-15.20 6.83Q-14.19 6.83-13.41 6.49Q-12.63 6.14-11.97 5.32L-11.97 5.32L-9.66 6.89Q-10.08 7.52-10.60 7.99Q-11.12 8.47-11.81 8.79Q-12.49 9.11-13.37 9.28Q-14.24 9.45-15.37 9.45L-15.37 9.45Q-18.88 9.45-20.56 7.51Q-22.23 5.57-22.23 1.78L-22.23 1.78Q-22.23 0.01-21.88-1.45Q-21.52-2.90-20.73-3.93Q-19.93-4.97-18.66-5.54Q-17.38-6.10-15.53-6.10L-15.53-6.10Q-13.89-6.10-12.74-5.61Q-11.58-5.12-10.85-4.23Q-10.12-3.33-9.79-2.07Q-9.45-0.81-9.45 0.72L-9.45 0.72L-9.45 2.30ZM-19.07 0.09L-12.44 0.09Q-12.44-1.75-13.21-2.71Q-13.98-3.67-15.63-3.67L-15.63-3.67Q-16.47-3.67-17.07-3.42Q-17.66-3.18-18.06-2.70Q-18.46-2.22-18.70-1.52Q-18.94-0.82-19.07 0.09L-19.07 0.09Z"/><path fill="#000000" opacity="1" d=""/><path fill="#000000" opacity="1" d="M21.66 9.02L18.63 9.02L18.63 0.36Q18.63-0.74 18.57-1.45Q18.51-2.17 18.31-2.59Q18.11-3.01 17.75-3.18Q17.38-3.36 16.77-3.36L16.77-3.36Q16.32-3.36 15.84-3.17Q15.37-2.98 14.88-2.66Q14.40-2.35 13.93-1.94Q13.46-1.52 13.04-1.09L13.04-1.09L13.04 9.02L10.03 9.02L10.03 0.36Q10.03-0.77 9.96-1.49Q9.89-2.21 9.69-2.62Q9.49-3.04 9.14-3.20Q8.78-3.36 8.19-3.36L8.19-3.36Q7.71-3.36 7.21-3.16Q6.71-2.95 6.22-2.62Q5.72-2.29 5.27-1.89Q4.81-1.48 4.44-1.09L4.44-1.09L4.44 9.02L1.42 9.02L1.42-5.68L4.44-5.68L4.44-3.64Q4.91-4.17 5.44-4.62Q5.98-5.07 6.54-5.40Q7.11-5.73 7.73-5.92Q8.35-6.10 9.02-6.10L9.02-6.10Q10.69-6.10 11.57-5.44Q12.45-4.77 12.76-3.41L12.76-3.41Q13.36-4.04 13.94-4.54Q14.51-5.04 15.11-5.38Q15.70-5.73 16.35-5.92Q16.99-6.10 17.72-6.10L17.72-6.10Q18.90-6.10 19.65-5.73Q20.41-5.36 20.86-4.67Q21.31-3.97 21.48-2.99Q21.66-2.01 21.66-0.79L21.66-0.79L21.66 9.02Z"/><path fill="#000000" opacity="1" d="M37.98 2.30L28.31 2.30Q28.33 3.41 28.55 4.26Q28.76 5.11 29.23 5.67Q29.69 6.24 30.42 6.54Q31.16 6.83 32.24 6.83L32.24 6.83Q33.25 6.83 34.03 6.49Q34.80 6.14 35.46 5.32L35.46 5.32L37.77 6.89Q37.35 7.52 36.83 7.99Q36.32 8.47 35.63 8.79Q34.94 9.11 34.07 9.28Q33.19 9.45 32.07 9.45L32.07 9.45Q28.55 9.45 26.88 7.51Q25.20 5.57 25.20 1.78L25.20 1.78Q25.20 0.01 25.56-1.45Q25.92-2.90 26.71-3.93Q27.50-4.97 28.78-5.54Q30.05-6.10 31.90-6.10L31.90-6.10Q33.54-6.10 34.70-5.61Q35.85-5.12 36.58-4.23Q37.31-3.33 37.65-2.07Q37.98-0.81 37.98 0.72L37.98 0.72L37.98 2.30ZM28.37 0.09L35.00 0.09Q35.00-1.75 34.23-2.71Q33.46-3.67 31.80-3.67L31.80-3.67Q30.96-3.67 30.37-3.42Q29.77-3.18 29.37-2.70Q28.97-2.22 28.74-1.52Q28.50-0.82 28.37 0.09L28.37 0.09Z"/><path fill="#000000" opacity="1" d="M52.91 9.02L50.04 9.02L50.04 7.35Q49.00 8.27 47.84 8.86Q46.69 9.45 45.33 9.45L45.33 9.45Q44.21 9.45 43.34 9.11Q42.47 8.78 41.88 8.17Q41.29 7.56 40.98 6.72Q40.67 5.89 40.67 4.88L40.67 4.88Q40.67 3.55 41.12 2.65Q41.56 1.76 42.34 1.19Q43.11 0.62 44.19 0.33Q45.26 0.05 46.53-0.08L46.53-0.08L49.90-0.40L49.90-1.09Q49.90-1.82 49.68-2.30Q49.46-2.78 49.05-3.08Q48.63-3.37 48.02-3.49Q47.42-3.61 46.64-3.61L46.64-3.61Q45.90-3.61 45.35-3.47Q44.79-3.33 44.39-3.11Q43.98-2.88 43.72-2.59Q43.45-2.31 43.30-2.03L43.30-2.03L40.91-3.55Q41.18-4.03 41.65-4.49Q42.12-4.94 42.82-5.30Q43.52-5.66 44.48-5.88Q45.44-6.10 46.70-6.10L46.70-6.10Q48.24-6.10 49.41-5.85Q50.57-5.60 51.35-5.01Q52.12-4.42 52.52-3.44Q52.91-2.45 52.91-0.98L52.91-0.98L52.91 9.02ZM49.90 5.08L49.90 1.87L47.79 2.07Q46.83 2.15 46.08 2.33Q45.33 2.51 44.82 2.84Q44.30 3.16 44.04 3.64Q43.77 4.13 43.77 4.83L43.77 4.83Q43.77 5.99 44.39 6.47Q45.00 6.96 46.13 6.96L46.13 6.96Q46.56 6.96 47.03 6.80Q47.50 6.65 47.98 6.40Q48.47 6.14 48.95 5.80Q49.43 5.46 49.90 5.08L49.90 5.08Z"/><path fill="#000000" opacity="1" d="M69.57 9.02L66.56 9.02L66.56 0.64Q66.56-0.46 66.49-1.22Q66.42-1.98 66.19-2.46Q65.96-2.94 65.53-3.15Q65.11-3.36 64.41-3.36L64.41-3.36Q63.95-3.36 63.43-3.18Q62.90-2.99 62.36-2.68Q61.82-2.36 61.27-1.95Q60.73-1.54 60.22-1.09L60.22-1.09L60.22 9.02L57.21 9.02L57.21-5.68L60.22-5.68L60.22-3.64Q60.70-4.11 61.29-4.56Q61.88-5.01 62.53-5.36Q63.18-5.70 63.87-5.90Q64.57-6.10 65.27-6.10L65.27-6.10Q66.50-6.10 67.33-5.75Q68.16-5.40 68.65-4.72Q69.15-4.04 69.36-3.06Q69.57-2.07 69.57-0.79L69.57-0.79L69.57 9.02Z"/><path fill="#000000" opacity="1" d="M84.50 4.94L84.50 4.94Q84.50 6.16 84.03 7.01Q83.56 7.87 82.76 8.41Q81.97 8.96 80.94 9.21Q79.90 9.45 78.76 9.45L78.76 9.45Q77.61 9.45 76.68 9.25Q75.75 9.06 75.02 8.71Q74.29 8.37 73.77 7.89Q73.24 7.42 72.91 6.86L72.91 6.86L75.20 5.32Q75.81 6.20 76.69 6.58Q77.57 6.96 78.68 6.96L78.68 6.96Q79.23 6.96 79.74 6.87Q80.26 6.79 80.66 6.57Q81.06 6.35 81.31 5.99Q81.55 5.62 81.55 5.08L81.55 5.08Q81.55 4.66 81.37 4.36Q81.19 4.07 80.80 3.84Q80.40 3.61 79.78 3.40Q79.16 3.20 78.27 2.99L78.27 2.99Q77.28 2.74 76.37 2.42Q75.46 2.09 74.76 1.57Q74.07 1.04 73.65 0.25Q73.23-0.54 73.23-1.72L73.23-1.72Q73.23-2.66 73.58-3.46Q73.93-4.26 74.64-4.84Q75.34-5.43 76.39-5.77Q77.43-6.10 78.82-6.10L78.82-6.10Q79.79-6.10 80.63-5.92Q81.48-5.74 82.18-5.40Q82.87-5.07 83.40-4.60Q83.93-4.13 84.27-3.55L84.27-3.55L81.97-2.00Q81.76-2.31 81.47-2.60Q81.17-2.90 80.77-3.12Q80.38-3.34 79.88-3.48Q79.38-3.61 78.76-3.61L78.76-3.61Q77.59-3.61 76.89-3.16Q76.19-2.70 76.19-1.83L76.19-1.83Q76.19-1.42 76.33-1.14Q76.48-0.86 76.81-0.64Q77.14-0.42 77.67-0.24Q78.20-0.07 78.96 0.12L78.96 0.12Q80.24 0.44 81.27 0.80Q82.30 1.17 83.01 1.70Q83.72 2.23 84.11 3.01Q84.50 3.79 84.50 4.94Z"/><path fill="#000000" opacity="1" d=""/><path fill="#000000" opacity="1" d="M104.34-5.61L103.74-2.73Q103.51-2.81 103.15-2.88Q102.80-2.95 102.42-2.95L102.42-2.95Q101.80-2.95 101.26-2.78Q100.71-2.62 100.21-2.33Q99.71-2.04 99.25-1.65Q98.79-1.26 98.34-0.82L98.34-0.82L98.34 9.02L95.33 9.02L95.33-5.68L98.34-5.68L98.34-3.44Q98.82-3.95 99.32-4.40Q99.83-4.84 100.38-5.18Q100.93-5.52 101.54-5.71Q102.14-5.91 102.81-5.91L102.81-5.91Q103.33-5.91 103.70-5.83Q104.07-5.75 104.34-5.61L104.34-5.61Z"/><path fill="#000000" opacity="1" d="M118.56 2.30L108.89 2.30Q108.91 3.41 109.12 4.26Q109.34 5.11 109.80 5.67Q110.27 6.24 111.00 6.54Q111.74 6.83 112.82 6.83L112.82 6.83Q113.83 6.83 114.60 6.49Q115.38 6.14 116.04 5.32L116.04 5.32L118.35 6.89Q117.93 7.52 117.41 7.99Q116.90 8.47 116.21 8.79Q115.52 9.11 114.65 9.28Q113.77 9.45 112.65 9.45L112.65 9.45Q109.13 9.45 107.46 7.51Q105.78 5.57 105.78 1.78L105.78 1.78Q105.78 0.01 106.14-1.45Q106.50-2.90 107.29-3.93Q108.08-4.97 109.36-5.54Q110.63-6.10 112.48-6.10L112.48-6.10Q114.12-6.10 115.28-5.61Q116.43-5.12 117.16-4.23Q117.89-3.33 118.23-2.07Q118.56-0.81 118.56 0.72L118.56 0.72L118.56 2.30ZM108.95 0.09L115.58 0.09Q115.58-1.75 114.81-2.71Q114.04-3.67 112.38-3.67L112.38-3.67Q111.54-3.67 110.95-3.42Q110.35-3.18 109.95-2.70Q109.55-2.22 109.31-1.52Q109.08-0.82 108.95 0.09L108.95 0.09Z"/><path fill="#000000" opacity="1" d="M134.43 9.02L131.55 9.02L131.55 7.59Q130.64 8.40 129.50 8.92Q128.36 9.45 127.00 9.45L127.00 9.45Q125.51 9.45 124.45 8.88Q123.38 8.32 122.70 7.29Q122.01 6.27 121.69 4.87Q121.37 3.47 121.37 1.78L121.37 1.78Q121.37 0.27 121.69-1.15Q122.01-2.57 122.73-3.67Q123.45-4.77 124.60-5.44Q125.75-6.10 127.41-6.10L127.41-6.10Q128.50-6.10 129.56-5.68Q130.61-5.25 131.41-4.54L131.41-4.54L131.41-11.85L134.43-11.85L134.43 9.02ZM131.41 5.11L131.41-1.97Q131.08-2.27 130.68-2.53Q130.28-2.80 129.83-3.00Q129.38-3.20 128.90-3.32Q128.43-3.44 127.94-3.44L127.94-3.44Q127.24-3.44 126.61-3.14Q125.98-2.84 125.51-2.21Q125.04-1.58 124.76-0.60Q124.48 0.37 124.48 1.73L124.48 1.73Q124.48 4.20 125.30 5.48Q126.12 6.77 127.71 6.77L127.71 6.77Q128.22 6.77 128.73 6.64Q129.24 6.51 129.72 6.28Q130.19 6.04 130.63 5.74Q131.06 5.44 131.41 5.11L131.41 5.11Z"/><path fill="#000000" opacity="1" d="M151.10 9.02L148.09 9.02L148.09 6.98Q147.60 7.47 147.02 7.92Q146.44 8.37 145.78 8.71Q145.13 9.04 144.44 9.25Q143.75 9.45 143.04 9.45L143.04 9.45Q141.81 9.45 140.98 9.10Q140.16 8.75 139.66 8.07Q139.16 7.39 138.95 6.40Q138.74 5.41 138.74 4.14L138.74 4.14L138.74-5.68L141.76-5.68L141.76 2.70Q141.76 3.80 141.83 4.57Q141.90 5.33 142.12 5.80Q142.34 6.27 142.76 6.48Q143.18 6.69 143.87 6.69L143.87 6.69Q144.33 6.69 144.86 6.51Q145.38 6.33 145.94 6.02Q146.49 5.71 147.04 5.30Q147.58 4.88 148.09 4.42L148.09 4.42L148.09-5.68L151.10-5.68L151.10 9.02Z"/><path fill="#000000" opacity="1" d="M164.77 5.29L167.12 6.83Q166.73 7.43 166.22 7.92Q165.72 8.40 165.05 8.74Q164.39 9.09 163.54 9.27Q162.69 9.45 161.64 9.45L161.64 9.45Q159.79 9.45 158.49 8.89Q157.18 8.33 156.36 7.31Q155.53 6.28 155.15 4.87Q154.77 3.45 154.77 1.73L154.77 1.73Q154.77-0.07 155.17-1.52Q155.57-2.97 156.40-3.98Q157.23-5.00 158.50-5.55Q159.78-6.10 161.53-6.10L161.53-6.10Q163.39-6.10 164.77-5.46Q166.14-4.82 166.92-3.50L166.92-3.50L164.57-1.91Q164.08-2.67 163.36-3.07Q162.65-3.47 161.56-3.47L161.56-3.47Q159.66-3.47 158.77-2.22Q157.89-0.96 157.89 1.73L157.89 1.73Q157.89 2.96 158.08 3.91Q158.28 4.87 158.72 5.51Q159.16 6.16 159.89 6.49Q160.62 6.83 161.67 6.83L161.67 6.83Q162.16 6.83 162.59 6.75Q163.01 6.68 163.39 6.49Q163.77 6.31 164.11 6.02Q164.44 5.72 164.77 5.29L164.77 5.29Z"/><path fill="#000000" opacity="1" d="M173.45-9.55L173.45-9.55Q173.45-8.63 173.01-8.27Q172.57-7.91 171.65-7.91L171.65-7.91Q170.64-7.91 170.25-8.33Q169.87-8.75 169.87-9.55L169.87-9.55Q169.87-10.42 170.27-10.81Q170.68-11.19 171.65-11.19L171.65-11.19Q172.61-11.19 173.03-10.81Q173.45-10.44 173.45-9.55ZM173.17 9.02L170.16 9.02L170.16-5.68L173.17-5.68L173.17 9.02Z"/><path fill="#000000" opacity="1" d="M189.95 9.02L186.94 9.02L186.94 0.64Q186.94-0.46 186.87-1.22Q186.80-1.98 186.56-2.46Q186.33-2.94 185.91-3.15Q185.49-3.36 184.79-3.36L184.79-3.36Q184.33-3.36 183.80-3.18Q183.28-2.99 182.74-2.68Q182.20-2.36 181.65-1.95Q181.11-1.54 180.60-1.09L180.60-1.09L180.60 9.02L177.59 9.02L177.59-5.68L180.60-5.68L180.60-3.64Q181.08-4.11 181.67-4.56Q182.25-5.01 182.91-5.36Q183.56-5.70 184.25-5.90Q184.95-6.10 185.65-6.10L185.65-6.10Q186.88-6.10 187.71-5.75Q188.53-5.40 189.03-4.72Q189.53-4.04 189.74-3.06Q189.95-2.07 189.95-0.79L189.95-0.79L189.95 9.02Z"/><path fill="#000000" opacity="1" d="M206.57-5.68L206.57 8.74Q206.57 10.21 206.18 11.30Q205.78 12.39 204.94 13.11Q204.10 13.84 202.78 14.19Q201.47 14.55 199.63 14.55L199.63 14.55Q197.94 14.55 196.54 14.21Q195.15 13.86 194.05 13.23L194.05 13.23L195.04 10.80Q195.99 11.31 197.13 11.64Q198.27 11.97 199.63 11.97L199.63 11.97Q200.70 11.97 201.44 11.79Q202.18 11.61 202.65 11.22Q203.12 10.84 203.34 10.22Q203.56 9.60 203.56 8.74L203.56 8.74L203.56 7.26Q202.73 8.02 201.62 8.52Q200.51 9.02 199.17 9.02L199.17 9.02Q197.70 9.02 196.63 8.46Q195.55 7.91 194.86 6.91Q194.17 5.92 193.84 4.55Q193.51 3.17 193.51 1.52L193.51 1.52Q193.51 0.06 193.84-1.31Q194.17-2.69 194.89-3.75Q195.61-4.82 196.77-5.46Q197.92-6.10 199.58-6.10L199.58-6.10Q200.74-6.10 201.83-5.64Q202.92-5.17 203.77-4.38L203.77-4.38L203.99-5.68L206.57-5.68ZM203.56 4.69L203.56-1.97Q202.78-2.64 201.91-3.04Q201.03-3.44 200.05-3.44L200.05-3.44Q199.23-3.44 198.59-3.07Q197.95-2.70 197.51-2.05Q197.07-1.40 196.84-0.50Q196.62 0.40 196.62 1.46L196.62 1.46Q196.62 2.57 196.80 3.47Q196.98 4.38 197.37 5.01Q197.75 5.65 198.36 6.00Q198.97 6.35 199.83 6.35L199.83 6.35Q200.79 6.35 201.74 5.90Q202.69 5.46 203.56 4.69L203.56 4.69Z"/><path fill="#000000" opacity="1" d=""/><path fill="#000000" opacity="1" d="M227.32-5.61L226.72-2.73Q226.50-2.81 226.14-2.88Q225.78-2.95 225.40-2.95L225.40-2.95Q224.79-2.95 224.24-2.78Q223.69-2.62 223.20-2.33Q222.70-2.04 222.24-1.65Q221.77-1.26 221.32-0.82L221.32-0.82L221.32 9.02L218.31 9.02L218.31-5.68L221.32-5.68L221.32-3.44Q221.80-3.95 222.31-4.40Q222.81-4.84 223.36-5.18Q223.92-5.52 224.52-5.71Q225.12-5.91 225.80-5.91L225.80-5.91Q226.31-5.91 226.69-5.83Q227.06-5.75 227.32-5.61L227.32-5.61Z"/><path fill="#000000" opacity="1" d="M233.17-9.55L233.17-9.55Q233.17-8.63 232.73-8.27Q232.28-7.91 231.36-7.91L231.36-7.91Q230.35-7.91 229.96-8.33Q229.58-8.75 229.58-9.55L229.58-9.55Q229.58-10.42 229.99-10.81Q230.39-11.19 231.36-11.19L231.36-11.19Q232.33-11.19 232.75-10.81Q233.17-10.44 233.17-9.55ZM232.89 9.02L229.87 9.02L229.87-5.68L232.89-5.68L232.89 9.02Z"/><path fill="#000000" opacity="1" d="M247.91 4.94L247.91 4.94Q247.91 6.16 247.44 7.01Q246.97 7.87 246.18 8.41Q245.39 8.96 244.35 9.21Q243.31 9.45 242.18 9.45L242.18 9.45Q241.03 9.45 240.10 9.25Q239.16 9.06 238.44 8.71Q237.71 8.37 237.18 7.89Q236.66 7.42 236.32 6.86L236.32 6.86L238.62 5.32Q239.22 6.20 240.10 6.58Q240.99 6.96 242.09 6.96L242.09 6.96Q242.64 6.96 243.16 6.87Q243.68 6.79 244.08 6.57Q244.48 6.35 244.72 5.99Q244.97 5.62 244.97 5.08L244.97 5.08Q244.97 4.66 244.78 4.36Q244.60 4.07 244.21 3.84Q243.82 3.61 243.19 3.40Q242.57 3.20 241.69 2.99L241.69 2.99Q240.69 2.74 239.78 2.42Q238.87 2.09 238.18 1.57Q237.48 1.04 237.06 0.25Q236.64-0.54 236.64-1.72L236.64-1.72Q236.64-2.66 236.99-3.46Q237.34-4.26 238.05-4.84Q238.76-5.43 239.80-5.77Q240.85-6.10 242.23-6.10L242.23-6.10Q243.20-6.10 244.05-5.92Q244.90-5.74 245.59-5.40Q246.28-5.07 246.82-4.60Q247.35-4.13 247.68-3.55L247.68-3.55L245.39-2.00Q245.18-2.31 244.88-2.60Q244.59-2.90 244.19-3.12Q243.79-3.34 243.29-3.48Q242.79-3.61 242.18-3.61L242.18-3.61Q241.00-3.61 240.30-3.16Q239.60-2.70 239.60-1.83L239.60-1.83Q239.60-1.42 239.75-1.14Q239.89-0.86 240.22-0.64Q240.55-0.42 241.08-0.24Q241.62-0.07 242.37 0.12L242.37 0.12Q243.65 0.44 244.68 0.80Q245.71 1.17 246.42 1.70Q247.14 2.23 247.52 3.01Q247.91 3.79 247.91 4.94Z"/><path fill="#000000" opacity="1" d="M263.76 9.02L260.23 9.02L255.92 2.67L254.44 4.31L254.44 9.02L251.43 9.02L251.43-11.85L254.44-11.85L254.44 0.64L259.89-5.68L263.45-5.68L257.76 0.64L263.76 9.02Z"/><path fill="#000000" opacity="1" d="M276.93 4.94L276.93 4.94Q276.93 6.16 276.46 7.01Q275.99 7.87 275.20 8.41Q274.41 8.96 273.37 9.21Q272.33 9.45 271.20 9.45L271.20 9.45Q270.05 9.45 269.12 9.25Q268.19 9.06 267.46 8.71Q266.73 8.37 266.20 7.89Q265.68 7.42 265.34 6.86L265.34 6.86L267.64 5.32Q268.24 6.20 269.13 6.58Q270.01 6.96 271.12 6.96L271.12 6.96Q271.66 6.96 272.18 6.87Q272.70 6.79 273.10 6.57Q273.50 6.35 273.74 5.99Q273.99 5.62 273.99 5.08L273.99 5.08Q273.99 4.66 273.81 4.36Q273.62 4.07 273.23 3.84Q272.84 3.61 272.22 3.40Q271.59 3.20 270.71 2.99L270.71 2.99Q269.71 2.74 268.80 2.42Q267.89 2.09 267.20 1.57Q266.51 1.04 266.08 0.25Q265.66-0.54 265.66-1.72L265.66-1.72Q265.66-2.66 266.01-3.46Q266.36-4.26 267.07-4.84Q267.78-5.43 268.82-5.77Q269.87-6.10 271.26-6.10L271.26-6.10Q272.22-6.10 273.07-5.92Q273.92-5.74 274.61-5.40Q275.31-5.07 275.84-4.60Q276.37-4.13 276.71-3.55L276.71-3.55L274.41-2.00Q274.20-2.31 273.90-2.60Q273.61-2.90 273.21-3.12Q272.81-3.34 272.31-3.48Q271.82-3.61 271.20-3.61L271.20-3.61Q270.02-3.61 269.32-3.16Q268.62-2.70 268.62-1.83L268.62-1.83Q268.62-1.42 268.77-1.14Q268.92-0.86 269.24-0.64Q269.57-0.42 270.11-0.24Q270.64-0.07 271.40 0.12L271.40 0.12Q272.67 0.44 273.70 0.80Q274.73 1.17 275.45 1.70Q276.16 2.23 276.55 3.01Q276.93 3.79 276.93 4.94Z"/></g></g>
</g>
</svg>