<?xml version="1.0" encoding="UTF-8" standalone="no" ?>
<!DOCTYPE svg PUBLIC "-//W3C//DTD SVG 1.1//EN" "http://www.w3.org/Graphics/SVG/1.1/DTD/svg11.dtd">
<svg xmlns="http://www.w3.org/2000/svg" xmlns:xlink="http://www.w3.org/1999/xlink" version="1.1" width="500" height="500" viewBox="0 0 500 500" xml:space="preserve">
<desc>Created with Fabric.js 3.6.3</desc>
<defs>
</defs>
<g transform="matrix(0.00005 0 0 0.00005 0 0)"  >
<g style=""   >
</g>
</g>
<g transform="matrix(0.00005 0 0 0.00005 0 0)"  >
<g style=""   >
</g>
</g>
<g transform="matrix(0.00005 0 0 0.00005 0 0)"  >
<g style=""   >
</g>
</g>
<g transform="matrix(0.00005 0 0 0.00005 0 0)"  >
<g style=""   >
</g>
</g>
<g transform="matrix(0.00005 0 0 0.00005 0 0)"  >
<g style=""   >
</g>
</g>
<g transform="matrix(0.00005 0 0 0.00005 0 0)"  >
<g style=""   >
</g>
</g>
<g transform="matrix(0.00005 0 0 0.00005 0 0)"  >
<g style=""   >
</g>
</g>
<g transform="matrix(0.00005 0 0 0.00005 0 0)"  >
<g style=""   >
</g>
</g>
<g transform="matrix(0.00005 0 0 0.00005 0 0)"  >
<g style=""   >
</g>
</g>
<g transform="matrix(0.00005 0 0 0.00005 0 0)"  >
<g style=""   >
</g>
</g>
<g transform="matrix(0.00005 0 0 0.00005 0 0)"  >
<g style=""   >
</g>
</g>
<g transform="matrix(0.00005 0 0 0.00005 0 0)"  >
<g style=""   >
</g>
</g>
<g transform="matrix(0.00005 0 0 0.00005 0 0)"  >
<g style=""   >
</g>
</g>
<g transform="matrix(0.00005 0 0 0.00005 0 0)"  >
<g style=""   >
</g>
</g>
<g transform="matrix(0.00005 0 0 0.00005 0 0)"  >
<g style=""   >
</g>
</g>
<g transform="matrix(0.00005 0 0 0.00005 0 0)"  >
<g style=""   >
</g>
</g>
<g transform="matrix(0.00005 0 0 0.00005 0 0)"  >
<g style=""   >
</g>
</g>
<g transform="matrix(0.00005 0 0 0.00005 0 0)"  >
<g style=""   >
</g>
</g>
<g transform="matrix(0.00005 0 0 0.00005 0 0)"  >
<g style=""   >
</g>
</g>
<g transform="matrix(0.00005 0 0 0.00005 0 0)"  >
<g style=""   >
</g>
</g>
<g transform="matrix(0.00005 0 0 0.00005 0 0)"  >
<g style=""   >
</g>
</g>
<g transform="matrix(0.00005 0 0 0.00005 0 0)"  >
<g style=""   >
</g>
</g>
<g transform="matrix(0.00005 0 0 0.00005 0 0)"  >
<g style=""   >
</g>
</g>
<g transform="matrix(0.00005 0 0 0.00005 0 0)"  >
<g style=""   >
</g>
</g>
<g transform="matrix(0.00005 0 0 0.00005 0 0)"  >
<g style=""   >
</g>
</g>
<g transform="matrix(0.00005 0 0 0.00005 0 0)"  >
<g style=""   >
</g>
</g>
<g transform="matrix(0.00005 0 0 0.00005 0 0)"  >
<g style=""   >
</g>
</g>
<g transform="matrix(0.00005 0 0 0.00005 0 0)"  >
<g style=""   >
</g>
</g>
<g transform="matrix(0.5 0 0 0.5 305.19746254453594 234.89742638308627)"  >
<g style=""   >
		<g transform="matrix(1 0 0 1 0 -20.020082172950254)" style=""  ><path fill="#ffffff" opacity="1" d="M-232.72 35.34L-245.57 35.34L-245.57 1.83L-277.87 1.83L-277.87 35.34L-290.67 35.34L-290.67-40.68L-277.87-40.68L-277.87-9.87L-245.57-9.87L-245.57-40.68L-232.72-40.68L-232.72 35.34Z"/><path fill="#ffffff" opacity="1" d="M-164.93 6.67L-164.93 6.67Q-164.93 13.70-166.44 19.30Q-167.95 24.90-171.17 28.86Q-174.38 32.81-179.38 34.93Q-184.38 37.04-191.35 37.04L-191.35 37.04Q-198.39 37.04-203.44 34.90Q-208.49 32.76-211.71 28.80Q-214.92 24.85-216.43 19.25Q-217.94 13.64-217.94 6.67L-217.94 6.67Q-217.94-0.42-216.40-6.08Q-214.87-11.74-211.65-15.72Q-208.44-19.70-203.41-21.82Q-198.39-23.93-191.35-23.93L-191.35-23.93Q-184.38-23.93-179.38-21.82Q-174.38-19.70-171.17-15.72Q-167.95-11.74-166.44-6.08Q-164.93-0.42-164.93 6.67ZM-177.18 6.67L-177.18 6.67Q-177.18-3.61-180.51-8.60Q-183.83-13.60-191.35-13.60L-191.35-13.60Q-198.88-13.60-202.31-8.60Q-205.75-3.61-205.75 6.67L-205.75 6.67Q-205.75 16.66-202.37 21.72Q-198.99 26.77-191.35 26.77L-191.35 26.77Q-183.94 26.77-180.56 21.72Q-177.18 16.66-177.18 6.67Z"/><path fill="#ffffff" opacity="1" d="M-115.16-22.01L-117.53-10.69Q-118.41-11.02-119.81-11.30Q-121.21-11.57-122.69-11.57L-122.69-11.57Q-125.11-11.57-127.25-10.91Q-129.39-10.25-131.34-9.13Q-133.29-8.00-135.10-6.46Q-136.92-4.92-138.67-3.22L-138.67-3.22L-138.67 35.34L-150.49 35.34L-150.49-22.28L-138.67-22.28L-138.67-13.49Q-136.81-15.47-134.83-17.23Q-132.85-18.99-130.68-20.31Q-128.51-21.62-126.15-22.39Q-123.79-23.16-121.15-23.16L-121.15-23.16Q-119.12-23.16-117.66-22.86Q-116.21-22.56-115.16-22.01L-115.16-22.01Z"/><path fill="#ffffff" opacity="1" d="M-92.26-37.44L-92.26-37.44Q-92.26-33.82-93.99-32.42Q-95.72-31.02-99.34-31.02L-99.34-31.02Q-103.30-31.02-104.81-32.66Q-106.32-34.31-106.32-37.44L-106.32-37.44Q-106.32-40.85-104.73-42.36Q-103.13-43.87-99.34-43.87L-99.34-43.87Q-95.55-43.87-93.91-42.39Q-92.26-40.90-92.26-37.44ZM-93.36 35.34L-105.17 35.34L-105.17-22.28L-93.36-22.28L-93.36 35.34Z"/><path fill="#ffffff" opacity="1" d="M-37.38 35.34L-80.89 35.34L-80.89 26.55L-52.43-12.67L-80.23-12.67L-80.23-22.28L-38.26-22.28L-38.26-13.71L-66.82 25.78L-37.38 25.78L-37.38 35.34Z"/><path fill="#ffffff" opacity="1" d="M25.19 6.67L25.19 6.67Q25.19 13.70 23.68 19.30Q22.16 24.90 18.95 28.86Q15.74 32.81 10.74 34.93Q5.74 37.04-1.24 37.04L-1.24 37.04Q-8.27 37.04-13.32 34.90Q-18.37 32.76-21.59 28.80Q-24.80 24.85-26.31 19.25Q-27.82 13.64-27.82 6.67L-27.82 6.67Q-27.82-0.42-26.28-6.08Q-24.75-11.74-21.53-15.72Q-18.32-19.70-13.29-21.82Q-8.27-23.93-1.24-23.93L-1.24-23.93Q5.74-23.93 10.74-21.82Q15.74-19.70 18.95-15.72Q22.16-11.74 23.68-6.08Q25.19-0.42 25.19 6.67ZM12.94 6.67L12.94 6.67Q12.94-3.61 9.61-8.60Q6.29-13.60-1.24-13.60L-1.24-13.60Q-8.76-13.60-12.19-8.60Q-15.63-3.61-15.63 6.67L-15.63 6.67Q-15.63 16.66-12.25 21.72Q-8.87 26.77-1.24 26.77L-1.24 26.77Q6.18 26.77 9.56 21.72Q12.94 16.66 12.94 6.67Z"/><path fill="#ffffff" opacity="1" d="M88.08 35.34L76.27 35.34L76.27 2.49Q76.27-1.79 76.00-4.79Q75.72-7.78 74.82-9.65Q73.91-11.52 72.26-12.34Q70.61-13.16 67.87-13.16L67.87-13.16Q66.06-13.16 64.00-12.45Q61.94-11.74 59.82-10.50Q57.71-9.26 55.56-7.64Q53.42-6.02 51.44-4.26L51.44-4.26L51.44 35.34L39.63 35.34L39.63-22.28L51.44-22.28L51.44-14.26Q53.31-16.13 55.62-17.89Q57.93-19.65 60.48-20.99Q63.03-22.34 65.75-23.13Q68.47-23.93 71.22-23.93L71.22-23.93Q76.05-23.93 79.29-22.56Q82.53-21.18 84.48-18.52Q86.43-15.86 87.26-11.98Q88.08-8.11 88.08-3.11L88.08-3.11L88.08 35.34Z"/><path fill="#ffffff" opacity="1" d="M159.77-28.98L135.49-28.98L135.49 35.34L122.63 35.34L122.63-28.98L98.36-28.98L98.36-40.68L159.77-40.68L159.77-28.98Z"/><path fill="#ffffff" opacity="1" d="M222.78 13.97L222.78 13.97Q222.78 20.40 220.50 24.77Q218.22 29.13 214.32 31.85Q210.42 34.57 205.22 35.75Q200.03 36.93 194.21 36.93L194.21 36.93Q188.06 36.93 183.44 35.78Q178.83 34.63 175.37 32.65Q171.91 30.67 169.46 28.03Q167.02 25.40 165.21 22.38L165.21 22.38L175.31 15.07Q176.69 17.21 178.36 19.11Q180.04 21.00 182.26 22.43Q184.49 23.86 187.45 24.71Q190.42 25.56 194.32 25.56L194.32 25.56Q197.23 25.56 200.01 25.01Q202.78 24.46 204.92 23.20Q207.06 21.94 208.36 19.90Q209.65 17.87 209.65 14.85L209.65 14.85Q209.65 11.99 208.41 10.07Q207.17 8.15 205.09 6.83Q203.00 5.51 200.20 4.63Q197.40 3.76 194.21 2.93L194.21 2.93Q188.39 1.45 183.39-0.12Q178.39-1.68 174.71-4.10Q171.03-6.52 168.91-10.25Q166.80-13.99 166.80-19.81L166.80-19.81Q166.80-24.97 168.56-29.12Q170.32-33.27 173.72-36.21Q177.13-39.15 182.21-40.71Q187.29-42.28 193.88-42.28L193.88-42.28Q198.83-42.28 202.92-41.37Q207.01-40.46 210.33-38.73Q213.66-37.00 216.29-34.45Q218.93-31.90 220.91-28.65L220.91-28.65L210.96-21.24Q207.94-26.07 203.82-28.49Q199.70-30.91 193.77-30.91L193.77-30.91Q187.34-30.91 183.58-28.27Q179.82-25.63 179.82-20.80L179.82-20.80Q179.82-18.38 180.83-16.76Q181.85-15.14 183.97-13.93Q186.08-12.72 189.29-11.76Q192.51-10.80 196.90-9.76L196.90-9.76Q200.31-8.93 203.52-8.00Q206.74-7.07 209.62-5.83Q212.50-4.59 214.92-2.92Q217.34-1.24 219.07 1.12Q220.80 3.48 221.79 6.64Q222.78 9.80 222.78 13.97Z"/><path fill="#ffffff" opacity="1" d="M294.13-2.67L294.13-2.67Q294.13 8.53 291.82 15.89Q289.52 23.26 284.93 27.57Q280.34 31.88 273.59 33.61Q266.83 35.34 257.93 35.34L257.93 35.34L236.67 35.34L236.67-40.68L257.71-40.68Q266.83-40.68 273.67-38.76Q280.51-36.84 285.07-32.39Q289.63-27.94 291.88-20.66Q294.13-13.38 294.13-2.67ZM280.73-2.78L280.73-2.78Q280.73-10.47 279.52-15.53Q278.31-20.58 275.51-23.57Q272.71-26.57 268.09-27.78Q263.48-28.98 256.67-28.98L256.67-28.98L249.47-28.98L249.47 23.64L256.67 23.64Q263.59 23.64 268.20 22.35Q272.82 21.06 275.62 18.01Q278.42 14.96 279.57 9.88Q280.73 4.80 280.73-2.78Z"/></g>		<g transform="matrix(1 0 0 1 3.316622082128106 66.23708217295017)" style=""  ><path fill="#ffffff" opacity="1" d="M-280.80-4.30L-280.80-4.30Q-280.80-2.42-281.23-1.07Q-281.66 0.29-282.57 1.17Q-283.47 2.06-284.89 2.49Q-286.31 2.91-288.28 2.91L-288.28 2.91L-291.64 2.91L-291.64 9.64L-295.14 9.64L-295.14-11.10L-288.16-11.10Q-286.40-11.10-285.02-10.74Q-283.65-10.37-282.72-9.56Q-281.78-8.75-281.29-7.45Q-280.80-6.16-280.80-4.30ZM-284.45-4.27L-284.45-4.27Q-284.45-5.39-284.75-6.12Q-285.06-6.85-285.65-7.26Q-286.23-7.68-287.09-7.85Q-287.95-8.01-289.06-8.01L-289.06-8.01L-291.64-8.01L-291.64-0.17L-289.45-0.17Q-288.13-0.17-287.18-0.31Q-286.23-0.44-285.62-0.87Q-285.02-1.30-284.73-2.11Q-284.45-2.92-284.45-4.27Z"/><path fill="#ffffff" opacity="1" d="M-267.48-6.01L-268.12-2.92Q-268.36-3.01-268.74-3.08Q-269.13-3.16-269.53-3.16L-269.53-3.16Q-270.19-3.16-270.78-2.98Q-271.36-2.80-271.89-2.49Q-272.43-2.18-272.92-1.76Q-273.41-1.34-273.89-0.88L-273.89-0.88L-273.89 9.64L-277.12 9.64L-277.12-6.08L-273.89-6.08L-273.89-3.68Q-273.38-4.22-272.84-4.70Q-272.31-5.18-271.71-5.54Q-271.12-5.90-270.48-6.11Q-269.83-6.32-269.11-6.32L-269.11-6.32Q-268.56-6.32-268.16-6.24Q-267.76-6.16-267.48-6.01L-267.48-6.01Z"/><path fill="#ffffff" opacity="1" d="M-252.26 2.46L-262.61 2.46Q-262.59 3.65-262.36 4.55Q-262.13 5.46-261.63 6.07Q-261.14 6.68-260.35 6.99Q-259.56 7.31-258.41 7.31L-258.41 7.31Q-257.33 7.31-256.50 6.94Q-255.67 6.57-254.96 5.69L-254.96 5.69L-252.49 7.37Q-252.94 8.04-253.49 8.55Q-254.05 9.06-254.78 9.40Q-255.52 9.75-256.45 9.93Q-257.39 10.11-258.59 10.11L-258.59 10.11Q-262.35 10.11-264.14 8.03Q-265.93 5.96-265.93 1.91L-265.93 1.91Q-265.93 0.01-265.55-1.55Q-265.17-3.10-264.32-4.21Q-263.48-5.32-262.11-5.92Q-260.75-6.53-258.77-6.53L-258.77-6.53Q-257.02-6.53-255.78-6.01Q-254.54-5.48-253.76-4.52Q-252.98-3.56-252.62-2.21Q-252.26-0.86-252.26 0.77L-252.26 0.77L-252.26 2.46ZM-262.55 0.10L-255.46 0.10Q-255.46-1.87-256.28-2.90Q-257.11-3.92-258.87-3.92L-258.87-3.92Q-259.77-3.92-260.41-3.66Q-261.05-3.40-261.47-2.89Q-261.90-2.38-262.16-1.63Q-262.41-0.88-262.55 0.10L-262.55 0.10Z"/><path fill="#ffffff" opacity="1" d="M-235.29 9.64L-238.37 9.64L-238.37 8.12Q-239.34 8.98-240.56 9.55Q-241.78 10.11-243.24 10.11L-243.24 10.11Q-244.83 10.11-245.97 9.50Q-247.11 8.89-247.84 7.80Q-248.58 6.71-248.92 5.21Q-249.27 3.71-249.27 1.91L-249.27 1.91Q-249.27 0.29-248.92-1.23Q-248.58-2.75-247.80-3.93Q-247.03-5.11-245.80-5.82Q-244.57-6.53-242.80-6.53L-242.80-6.53Q-241.64-6.53-240.50-6.07Q-239.37-5.62-238.52-4.85L-238.52-4.85L-238.52-12.68L-235.29-12.68L-235.29 9.64ZM-238.52 5.46L-238.52-2.11Q-238.88-2.42-239.30-2.71Q-239.73-2.99-240.21-3.21Q-240.69-3.43-241.20-3.55Q-241.71-3.68-242.23-3.68L-242.23-3.68Q-242.98-3.68-243.66-3.36Q-244.33-3.04-244.84-2.36Q-245.34-1.69-245.64-0.65Q-245.94 0.40-245.94 1.85L-245.94 1.85Q-245.94 4.49-245.06 5.87Q-244.18 7.25-242.47 7.25L-242.47 7.25Q-241.93 7.25-241.39 7.10Q-240.84 6.96-240.33 6.71Q-239.82 6.47-239.36 6.14Q-238.89 5.82-238.52 5.46L-238.52 5.46Z"/><path fill="#ffffff" opacity="1" d="M-227.03-10.22L-227.03-10.22Q-227.03-9.23-227.51-8.85Q-227.98-8.46-228.97-8.46L-228.97-8.46Q-230.05-8.46-230.46-8.91Q-230.87-9.36-230.87-10.22L-230.87-10.22Q-230.87-11.15-230.44-11.56Q-230.00-11.97-228.97-11.97L-228.97-11.97Q-227.93-11.97-227.48-11.57Q-227.03-11.16-227.03-10.22ZM-227.33 9.64L-230.56 9.64L-230.56-6.08L-227.33-6.08L-227.33 9.64Z"/><path fill="#ffffff" opacity="1" d="M-212.73 5.66L-210.22 7.31Q-210.64 7.95-211.17 8.47Q-211.71 8.98-212.43 9.35Q-213.14 9.72-214.05 9.91Q-214.95 10.11-216.08 10.11L-216.08 10.11Q-218.06 10.11-219.45 9.51Q-220.84 8.91-221.73 7.82Q-222.61 6.72-223.02 5.21Q-223.42 3.69-223.42 1.85L-223.42 1.85Q-223.42-0.07-222.99-1.62Q-222.57-3.17-221.68-4.26Q-220.80-5.35-219.43-5.94Q-218.07-6.53-216.20-6.53L-216.20-6.53Q-214.20-6.53-212.73-5.84Q-211.26-5.15-210.43-3.74L-210.43-3.74L-212.94-2.05Q-213.47-2.86-214.23-3.28Q-215.00-3.71-216.17-3.71L-216.17-3.71Q-218.19-3.71-219.14-2.37Q-220.09-1.03-220.09 1.85L-220.09 1.85Q-220.09 3.17-219.88 4.19Q-219.67 5.21-219.20 5.90Q-218.73 6.59-217.95 6.95Q-217.17 7.31-216.05 7.31L-216.05 7.31Q-215.52 7.31-215.06 7.22Q-214.61 7.14-214.20 6.95Q-213.80 6.75-213.44 6.44Q-213.08 6.12-212.73 5.66L-212.73 5.66Z"/><path fill="#ffffff" opacity="1" d="M-199.38 7.01L-198.70 9.64Q-199.38 9.85-200.22 9.98Q-201.07 10.11-201.84 10.11L-201.84 10.11Q-203.13 10.11-204.03 9.80Q-204.94 9.49-205.52 8.86Q-206.09 8.22-206.36 7.23Q-206.63 6.24-206.63 4.89L-206.63 4.89L-206.63-3.46L-208.75-3.46L-208.75-6.08L-206.63-6.08L-206.63-10.46L-203.41-10.46L-203.41-6.08L-199.60-6.08L-199.60-3.46L-203.41-3.46L-203.41 4.40Q-203.41 5.24-203.31 5.81Q-203.22 6.39-202.99 6.75Q-202.77 7.11-202.40 7.28Q-202.03 7.44-201.51 7.44L-201.51 7.44Q-200.98 7.44-200.40 7.31Q-199.81 7.19-199.38 7.01L-199.38 7.01Z"/><path fill="#ffffff" opacity="1" d="M-192.45-10.22L-192.45-10.22Q-192.45-9.23-192.92-8.85Q-193.40-8.46-194.39-8.46L-194.39-8.46Q-195.47-8.46-195.88-8.91Q-196.29-9.36-196.29-10.22L-196.29-10.22Q-196.29-11.15-195.85-11.56Q-195.42-11.97-194.39-11.97L-194.39-11.97Q-193.35-11.97-192.90-11.57Q-192.45-11.16-192.45-10.22ZM-192.75 9.64L-195.97 9.64L-195.97-6.08L-192.75-6.08L-192.75 9.64Z"/><path fill="#ffffff" opacity="1" d="M-174.81 9.64L-178.03 9.64L-178.03 0.68Q-178.03-0.49-178.11-1.31Q-178.18-2.12-178.43-2.63Q-178.68-3.14-179.13-3.37Q-179.58-3.59-180.33-3.59L-180.33-3.59Q-180.82-3.59-181.38-3.40Q-181.94-3.20-182.52-2.87Q-183.10-2.53-183.68-2.09Q-184.27-1.64-184.81-1.16L-184.81-1.16L-184.81 9.64L-188.03 9.64L-188.03-6.08L-184.81-6.08L-184.81-3.89Q-184.30-4.40-183.67-4.88Q-183.04-5.36-182.34-5.73Q-181.64-6.10-180.90-6.31Q-180.16-6.53-179.41-6.53L-179.41-6.53Q-178.09-6.53-177.21-6.16Q-176.32-5.78-175.79-5.05Q-175.26-4.33-175.03-3.27Q-174.81-2.21-174.81-0.85L-174.81-0.85L-174.81 9.64Z"/><path fill="#ffffff" opacity="1" d="M-157.03-6.08L-157.03 9.34Q-157.03 10.92-157.45 12.09Q-157.87 13.26-158.77 14.03Q-159.67 14.80-161.08 15.18Q-162.49 15.57-164.45 15.57L-164.45 15.57Q-166.26 15.57-167.76 15.20Q-169.25 14.83-170.42 14.16L-170.42 14.16L-169.37 11.55Q-168.35 12.10-167.13 12.45Q-165.90 12.81-164.45 12.81L-164.45 12.81Q-163.31 12.81-162.52 12.61Q-161.72 12.42-161.22 12.01Q-160.72 11.59-160.49 10.93Q-160.25 10.27-160.25 9.34L-160.25 9.34L-160.25 7.77Q-161.14 8.58-162.32 9.11Q-163.51 9.64-164.95 9.64L-164.95 9.64Q-166.52 9.64-167.67 9.05Q-168.81 8.46-169.55 7.40Q-170.30 6.33-170.65 4.86Q-171.00 3.39-171.00 1.62L-171.00 1.62Q-171.00 0.07-170.65-1.40Q-170.30-2.87-169.52-4.01Q-168.75-5.15-167.52-5.84Q-166.28-6.53-164.51-6.53L-164.51-6.53Q-163.27-6.53-162.10-6.03Q-160.93-5.53-160.03-4.69L-160.03-4.69L-159.79-6.08L-157.03-6.08ZM-160.25 5.01L-160.25-2.11Q-161.08-2.83-162.01-3.25Q-162.95-3.68-164.00-3.68L-164.00-3.68Q-164.89-3.68-165.57-3.28Q-166.25-2.89-166.72-2.19Q-167.19-1.49-167.43-0.53Q-167.67 0.43-167.67 1.56L-167.67 1.56Q-167.67 2.75-167.48 3.72Q-167.28 4.68-166.87 5.36Q-166.46 6.05-165.81 6.42Q-165.15 6.80-164.24 6.80L-164.24 6.80Q-163.21 6.80-162.19 6.32Q-161.18 5.84-160.25 5.01L-160.25 5.01Z"/><path fill="#ffffff" opacity="1" d=""/><path fill="#ffffff" opacity="1" d="M-136.88 7.01L-136.21 9.64Q-136.88 9.85-137.73 9.98Q-138.58 10.11-139.34 10.11L-139.34 10.11Q-140.63 10.11-141.54 9.80Q-142.44 9.49-143.02 8.86Q-143.60 8.22-143.87 7.23Q-144.14 6.24-144.14 4.89L-144.14 4.89L-144.14-3.46L-146.25-3.46L-146.25-6.08L-144.14-6.08L-144.14-10.46L-140.92-10.46L-140.92-6.08L-137.11-6.08L-137.11-3.46L-140.92-3.46L-140.92 4.40Q-140.92 5.24-140.82 5.81Q-140.72 6.39-140.50 6.75Q-140.27 7.11-139.90 7.28Q-139.54 7.44-139.01 7.44L-139.01 7.44Q-138.49 7.44-137.90 7.31Q-137.32 7.19-136.88 7.01L-136.88 7.01Z"/><path fill="#ffffff" opacity="1" d="M-120.26 9.64L-123.48 9.64L-123.48 0.68Q-123.48-0.50-123.56-1.32Q-123.65-2.14-123.89-2.64Q-124.14-3.14-124.59-3.37Q-125.04-3.59-125.78-3.59L-125.78-3.59Q-126.27-3.59-126.83-3.40Q-127.39-3.20-127.97-2.87Q-128.55-2.53-129.13-2.09Q-129.72-1.64-130.26-1.16L-130.26-1.16L-130.26 9.64L-133.48 9.64L-133.48-12.68L-130.26-12.68L-130.26-3.89Q-129.75-4.40-129.12-4.88Q-128.49-5.36-127.79-5.73Q-127.09-6.10-126.35-6.31Q-125.61-6.53-124.86-6.53L-124.86-6.53Q-123.56-6.53-122.67-6.16Q-121.79-5.78-121.26-5.05Q-120.72-4.33-120.49-3.27Q-120.26-2.21-120.26-0.85L-120.26-0.85L-120.26 9.64Z"/><path fill="#ffffff" opacity="1" d="M-102.78 2.46L-113.12 2.46Q-113.11 3.65-112.88 4.55Q-112.64 5.46-112.15 6.07Q-111.65 6.68-110.87 6.99Q-110.08 7.31-108.93 7.31L-108.93 7.31Q-107.85 7.31-107.02 6.94Q-106.18 6.57-105.48 5.69L-105.48 5.69L-103.01 7.37Q-103.46 8.04-104.01 8.55Q-104.56 9.06-105.30 9.40Q-106.03 9.75-106.97 9.93Q-107.91 10.11-109.11 10.11L-109.11 10.11Q-112.87 10.11-114.66 8.03Q-116.45 5.96-116.45 1.91L-116.45 1.91Q-116.45 0.01-116.07-1.55Q-115.69-3.10-114.84-4.21Q-113.99-5.32-112.63-5.92Q-111.27-6.53-109.29-6.53L-109.29-6.53Q-107.53-6.53-106.30-6.01Q-105.06-5.48-104.28-4.52Q-103.50-3.56-103.14-2.21Q-102.78-0.86-102.78 0.77L-102.78 0.77L-102.78 2.46ZM-113.06 0.10L-105.97 0.10Q-105.97-1.87-106.80-2.90Q-107.62-3.92-109.39-3.92L-109.39-3.92Q-110.29-3.92-110.93-3.66Q-111.56-3.40-111.99-2.89Q-112.42-2.38-112.67-1.63Q-112.93-0.88-113.06 0.10L-113.06 0.10Z"/><path fill="#ffffff" opacity="1" d=""/><path fill="#ffffff" opacity="1" d="M-82.50-12.65L-83.23-9.84Q-83.71-10.05-84.28-10.18Q-84.85-10.31-85.41-10.31L-85.41-10.31Q-86.04-10.31-86.46-10.16Q-86.88-10.01-87.12-9.69Q-87.37-9.36-87.47-8.85Q-87.57-8.33-87.57-7.61L-87.57-7.61L-87.57-6.08L-84.21-6.08L-84.21-3.46L-87.57-3.46L-87.57 9.64L-90.79 9.64L-90.79-3.46L-92.93-3.46L-92.93-6.08L-90.79-6.08L-90.79-7.61Q-90.79-8.99-90.50-10.03Q-90.22-11.07-89.59-11.76Q-88.96-12.45-87.95-12.80Q-86.94-13.14-85.47-13.14L-85.47-13.14Q-84.64-13.14-83.87-13.00Q-83.10-12.86-82.50-12.65L-82.50-12.65Z"/><path fill="#ffffff" opacity="1" d="M-68.38 9.64L-71.60 9.64L-71.60 7.47Q-72.13 8.00-72.75 8.47Q-73.37 8.95-74.07 9.31Q-74.76 9.67-75.51 9.89Q-76.25 10.11-77.00 10.11L-77.00 10.11Q-78.32 10.11-79.20 9.73Q-80.09 9.36-80.62 8.63Q-81.15 7.91-81.37 6.85Q-81.60 5.79-81.60 4.43L-81.60 4.43L-81.60-6.08L-78.38-6.08L-78.38 2.88Q-78.38 4.07-78.30 4.88Q-78.23 5.70-77.99 6.20Q-77.75 6.71-77.30 6.93Q-76.85 7.16-76.11 7.16L-76.11 7.16Q-75.62 7.16-75.06 6.96Q-74.49 6.77-73.90 6.44Q-73.31 6.11-72.73 5.66Q-72.14 5.22-71.60 4.73L-71.60 4.73L-71.60-6.08L-68.38-6.08L-68.38 9.64Z"/><path fill="#ffffff" opacity="1" d="M-56.06 7.01L-55.38 9.64Q-56.06 9.85-56.90 9.98Q-57.75 10.11-58.51 10.11L-58.51 10.11Q-59.80 10.11-60.71 9.80Q-61.62 9.49-62.19 8.86Q-62.77 8.22-63.04 7.23Q-63.31 6.24-63.31 4.89L-63.31 4.89L-63.31-3.46L-65.42-3.46L-65.42-6.08L-63.31-6.08L-63.31-10.46L-60.09-10.46L-60.09-6.08L-56.28-6.08L-56.28-3.46L-60.09-3.46L-60.09 4.40Q-60.09 5.24-59.99 5.81Q-59.89 6.39-59.67 6.75Q-59.44 7.11-59.08 7.28Q-58.71 7.44-58.18 7.44L-58.18 7.44Q-57.66 7.44-57.08 7.31Q-56.49 7.19-56.06 7.01L-56.06 7.01Z"/><path fill="#ffffff" opacity="1" d="M-39.70 9.64L-42.92 9.64L-42.92 7.47Q-43.45 8.00-44.07 8.47Q-44.69 8.95-45.39 9.31Q-46.09 9.67-46.83 9.89Q-47.57 10.11-48.32 10.11L-48.32 10.11Q-49.64 10.11-50.52 9.73Q-51.41 9.36-51.94 8.63Q-52.47 7.91-52.70 6.85Q-52.92 5.79-52.92 4.43L-52.92 4.43L-52.92-6.08L-49.70-6.08L-49.70 2.88Q-49.70 4.07-49.63 4.88Q-49.55 5.70-49.31 6.20Q-49.07 6.71-48.62 6.93Q-48.17 7.16-47.44 7.16L-47.44 7.16Q-46.94 7.16-46.38 6.96Q-45.82 6.77-45.23 6.44Q-44.63 6.11-44.05 5.66Q-43.46 5.22-42.92 4.73L-42.92 4.73L-42.92-6.08L-39.70-6.08L-39.70 9.64Z"/><path fill="#ffffff" opacity="1" d="M-25.33-6.01L-25.97-2.92Q-26.21-3.01-26.59-3.08Q-26.97-3.16-27.38-3.16L-27.38-3.16Q-28.04-3.16-28.62-2.98Q-29.21-2.80-29.74-2.49Q-30.27-2.18-30.77-1.76Q-31.26-1.34-31.74-0.88L-31.74-0.88L-31.74 9.64L-34.96 9.64L-34.96-6.08L-31.74-6.08L-31.74-3.68Q-31.23-4.22-30.69-4.70Q-30.15-5.18-29.56-5.54Q-28.97-5.90-28.32-6.11Q-27.68-6.32-26.96-6.32L-26.96-6.32Q-26.41-6.32-26.01-6.24Q-25.61-6.16-25.33-6.01L-25.33-6.01Z"/><path fill="#ffffff" opacity="1" d="M-10.11 2.46L-20.45 2.46Q-20.44 3.65-20.21 4.55Q-19.97 5.46-19.48 6.07Q-18.99 6.68-18.20 6.99Q-17.41 7.31-16.26 7.31L-16.26 7.31Q-15.18 7.31-14.35 6.94Q-13.51 6.57-12.81 5.69L-12.81 5.69L-10.34 7.37Q-10.79 8.04-11.34 8.55Q-11.89 9.06-12.63 9.40Q-13.36 9.75-14.30 9.93Q-15.24 10.11-16.44 10.11L-16.44 10.11Q-20.20 10.11-21.99 8.03Q-23.78 5.96-23.78 1.91L-23.78 1.91Q-23.78 0.01-23.40-1.55Q-23.02-3.10-22.17-4.21Q-21.32-5.32-19.96-5.92Q-18.60-6.53-16.62-6.53L-16.62-6.53Q-14.86-6.53-13.63-6.01Q-12.39-5.48-11.61-4.52Q-10.83-3.56-10.47-2.21Q-10.11-0.86-10.11 0.77L-10.11 0.77L-10.11 2.46ZM-20.39 0.10L-13.30 0.10Q-13.30-1.87-14.13-2.90Q-14.95-3.92-16.72-3.92L-16.72-3.92Q-17.62-3.92-18.26-3.66Q-18.90-3.40-19.32-2.89Q-19.75-2.38-20.00-1.63Q-20.26-0.88-20.39 0.10L-20.39 0.10Z"/><path fill="#ffffff" opacity="1" d=""/><path fill="#ffffff" opacity="1" d="M23.17 9.64L19.93 9.64L19.93 0.38Q19.93-0.79 19.86-1.55Q19.79-2.32 19.58-2.77Q19.37-3.22 18.99-3.40Q18.60-3.59 17.94-3.59L17.94-3.59Q17.46-3.59 16.95-3.39Q16.44-3.19 15.92-2.85Q15.40-2.51 14.90-2.07Q14.40-1.63 13.95-1.16L13.95-1.16L13.95 9.64L10.73 9.64L10.73 0.38Q10.73-0.82 10.65-1.59Q10.58-2.36 10.37-2.81Q10.16-3.25 9.77-3.42Q9.39-3.59 8.76-3.59L8.76-3.59Q8.25-3.59 7.71-3.37Q7.17-3.16 6.65-2.81Q6.12-2.45 5.64-2.02Q5.15-1.58 4.74-1.16L4.74-1.16L4.74 9.64L1.52 9.64L1.52-6.08L4.74-6.08L4.74-3.89Q5.25-4.46 5.82-4.94Q6.39-5.42 7.00-5.77Q7.61-6.13 8.27-6.33Q8.93-6.53 9.65-6.53L9.65-6.53Q11.43-6.53 12.37-5.82Q13.32-5.11 13.65-3.65L13.65-3.65Q14.29-4.33 14.91-4.86Q15.52-5.39 16.16-5.76Q16.80-6.13 17.49-6.33Q18.18-6.53 18.96-6.53L18.96-6.53Q20.21-6.53 21.02-6.13Q21.83-5.74 22.31-4.99Q22.79-4.25 22.98-3.20Q23.17-2.15 23.17-0.85L23.17-0.85L23.17 9.64Z"/><path fill="#ffffff" opacity="1" d="M40.63 2.46L30.29 2.46Q30.30 3.65 30.54 4.55Q30.77 5.46 31.26 6.07Q31.76 6.68 32.54 6.99Q33.33 7.31 34.49 7.31L34.49 7.31Q35.56 7.31 36.40 6.94Q37.23 6.57 37.93 5.69L37.93 5.69L40.41 7.37Q39.96 8.04 39.40 8.55Q38.85 9.06 38.11 9.40Q37.38 9.75 36.44 9.93Q35.50 10.11 34.31 10.11L34.31 10.11Q30.54 10.11 28.75 8.03Q26.96 5.96 26.96 1.91L26.96 1.91Q26.96 0.01 27.34-1.55Q27.72-3.10 28.57-4.21Q29.42-5.32 30.78-5.92Q32.15-6.53 34.13-6.53L34.13-6.53Q35.88-6.53 37.12-6.01Q38.35-5.48 39.13-4.52Q39.91-3.56 40.27-2.21Q40.63-0.86 40.63 0.77L40.63 0.77L40.63 2.46ZM30.35 0.10L37.44 0.10Q37.44-1.87 36.61-2.90Q35.79-3.92 34.02-3.92L34.02-3.92Q33.12-3.92 32.48-3.66Q31.85-3.40 31.42-2.89Q30.99-2.38 30.74-1.63Q30.48-0.88 30.35 0.10L30.35 0.10Z"/><path fill="#ffffff" opacity="1" d="M56.60 9.64L53.52 9.64L53.52 7.86Q52.41 8.85 51.18 9.48Q49.94 10.11 48.49 10.11L48.49 10.11Q47.29 10.11 46.36 9.75Q45.43 9.39 44.80 8.74Q44.17 8.09 43.84 7.19Q43.51 6.30 43.51 5.22L43.51 5.22Q43.51 3.80 43.98 2.84Q44.45 1.88 45.29 1.27Q46.12 0.66 47.26 0.36Q48.41 0.05 49.78-0.08L49.78-0.08L53.37-0.43L53.37-1.16Q53.37-1.94 53.14-2.46Q52.91-2.98 52.47-3.29Q52.02-3.61 51.37-3.73Q50.72-3.86 49.89-3.86L49.89-3.86Q49.10-3.86 48.51-3.71Q47.92-3.56 47.48-3.32Q47.05-3.08 46.76-2.78Q46.48-2.47 46.31-2.17L46.31-2.17L43.76-3.80Q44.05-4.31 44.55-4.80Q45.05-5.29 45.80-5.67Q46.55-6.05 47.58-6.29Q48.61-6.53 49.95-6.53L49.95-6.53Q51.60-6.53 52.85-6.26Q54.09-5.99 54.92-5.36Q55.76-4.73 56.18-3.67Q56.60-2.62 56.60-1.04L56.60-1.04L56.60 9.64ZM53.37 5.43L53.37 2.00L51.12 2.21Q50.09 2.30 49.29 2.49Q48.49 2.69 47.94 3.03Q47.39 3.38 47.11 3.90Q46.82 4.41 46.82 5.16L46.82 5.16Q46.82 6.41 47.48 6.92Q48.14 7.44 49.34 7.44L49.34 7.44Q49.81 7.44 50.31 7.28Q50.81 7.11 51.33 6.84Q51.84 6.57 52.36 6.20Q52.88 5.84 53.37 5.43L53.37 5.43Z"/><path fill="#ffffff" opacity="1" d="M74.42 9.64L71.20 9.64L71.20 0.68Q71.20-0.49 71.12-1.31Q71.05-2.12 70.80-2.63Q70.55-3.14 70.10-3.37Q69.65-3.59 68.90-3.59L68.90-3.59Q68.41-3.59 67.85-3.40Q67.28-3.20 66.71-2.87Q66.13-2.53 65.54-2.09Q64.96-1.64 64.42-1.16L64.42-1.16L64.42 9.64L61.20 9.64L61.20-6.08L64.42-6.08L64.42-3.89Q64.93-4.40 65.56-4.88Q66.19-5.36 66.89-5.73Q67.58-6.10 68.33-6.31Q69.07-6.53 69.82-6.53L69.82-6.53Q71.14-6.53 72.02-6.16Q72.91-5.78 73.44-5.05Q73.97-4.33 74.19-3.27Q74.42-2.21 74.42-0.85L74.42-0.85L74.42 9.64Z"/><path fill="#ffffff" opacity="1" d="M90.38 5.28L90.38 5.28Q90.38 6.59 89.88 7.50Q89.38 8.41 88.53 9.00Q87.69 9.58 86.58 9.85Q85.47 10.11 84.25 10.11L84.25 10.11Q83.02 10.11 82.03 9.90Q81.03 9.69 80.25 9.32Q79.47 8.95 78.91 8.44Q78.35 7.94 77.99 7.34L77.99 7.34L80.45 5.69Q81.09 6.63 82.03 7.04Q82.98 7.44 84.16 7.44L84.16 7.44Q84.75 7.44 85.30 7.35Q85.86 7.26 86.28 7.03Q86.71 6.80 86.97 6.41Q87.24 6.02 87.24 5.43L87.24 5.43Q87.24 4.98 87.04 4.67Q86.85 4.35 86.43 4.11Q86.01 3.86 85.34 3.64Q84.67 3.42 83.73 3.20L83.73 3.20Q82.66 2.93 81.69 2.58Q80.71 2.24 79.97 1.68Q79.23 1.11 78.78 0.27Q78.33-0.58 78.33-1.84L78.33-1.84Q78.33-2.84 78.71-3.70Q79.08-4.55 79.84-5.18Q80.59-5.81 81.71-6.17Q82.83-6.53 84.31-6.53L84.31-6.53Q85.35-6.53 86.25-6.34Q87.16-6.14 87.90-5.78Q88.64-5.42 89.21-4.92Q89.78-4.42 90.14-3.80L90.14-3.80L87.69-2.14Q87.46-2.47 87.15-2.78Q86.83-3.10 86.40-3.34Q85.98-3.58 85.44-3.72Q84.91-3.86 84.25-3.86L84.25-3.86Q82.99-3.86 82.24-3.37Q81.49-2.89 81.49-1.96L81.49-1.96Q81.49-1.52 81.65-1.22Q81.81-0.92 82.16-0.68Q82.51-0.44 83.08-0.26Q83.65-0.07 84.46 0.13L84.46 0.13Q85.83 0.47 86.93 0.86Q88.03 1.25 88.79 1.82Q89.56 2.39 89.97 3.22Q90.38 4.05 90.38 5.28Z"/><path fill="#ffffff" opacity="1" d=""/><path fill="#ffffff" opacity="1" d="M111.61-6.01L110.97-2.92Q110.73-3.01 110.34-3.08Q109.96-3.16 109.56-3.16L109.56-3.16Q108.90-3.16 108.31-2.98Q107.73-2.80 107.20-2.49Q106.66-2.18 106.17-1.76Q105.67-1.34 105.19-0.88L105.19-0.88L105.19 9.64L101.97 9.64L101.97-6.08L105.19-6.08L105.19-3.68Q105.70-4.22 106.24-4.70Q106.78-5.18 107.38-5.54Q107.97-5.90 108.61-6.11Q109.26-6.32 109.98-6.32L109.98-6.32Q110.53-6.32 110.93-6.24Q111.32-6.16 111.61-6.01L111.61-6.01Z"/><path fill="#ffffff" opacity="1" d="M126.82 2.46L116.48 2.46Q116.50 3.65 116.73 4.55Q116.96 5.46 117.46 6.07Q117.95 6.68 118.74 6.99Q119.52 7.31 120.68 7.31L120.68 7.31Q121.76 7.31 122.59 6.94Q123.42 6.57 124.13 5.69L124.13 5.69L126.60 7.37Q126.15 8.04 125.60 8.55Q125.04 9.06 124.31 9.40Q123.57 9.75 122.64 9.93Q121.70 10.11 120.50 10.11L120.50 10.11Q116.74 10.11 114.95 8.03Q113.15 5.96 113.15 1.91L113.15 1.91Q113.15 0.01 113.54-1.55Q113.92-3.10 114.77-4.21Q115.61-5.32 116.98-5.92Q118.34-6.53 120.32-6.53L120.32-6.53Q122.07-6.53 123.31-6.01Q124.55-5.48 125.33-4.52Q126.11-3.56 126.47-2.21Q126.82-0.86 126.82 0.77L126.82 0.77L126.82 2.46ZM116.54 0.10L123.63 0.10Q123.63-1.87 122.81-2.90Q121.98-3.92 120.21-3.92L120.21-3.92Q119.31-3.92 118.68-3.66Q118.04-3.40 117.61-2.89Q117.19-2.38 116.93-1.63Q116.68-0.88 116.54 0.10L116.54 0.10Z"/><path fill="#ffffff" opacity="1" d="M143.79 9.64L140.72 9.64L140.72 8.12Q139.75 8.98 138.52 9.55Q137.30 10.11 135.85 10.11L135.85 10.11Q134.26 10.11 133.12 9.50Q131.98 8.89 131.25 7.80Q130.51 6.71 130.17 5.21Q129.82 3.71 129.82 1.91L129.82 1.91Q129.82 0.29 130.17-1.23Q130.51-2.75 131.28-3.93Q132.06-5.11 133.29-5.82Q134.51-6.53 136.28-6.53L136.28-6.53Q137.45-6.53 138.58-6.07Q139.72-5.62 140.57-4.85L140.57-4.85L140.57-12.68L143.79-12.68L143.79 9.64ZM140.57 5.46L140.57-2.11Q140.21-2.42 139.78-2.71Q139.36-2.99 138.88-3.21Q138.40-3.43 137.89-3.55Q137.38-3.68 136.85-3.68L136.85-3.68Q136.10-3.68 135.43-3.36Q134.75-3.04 134.25-2.36Q133.75-1.69 133.45-0.65Q133.15 0.40 133.15 1.85L133.15 1.85Q133.15 4.49 134.03 5.87Q134.90 7.25 136.61 7.25L136.61 7.25Q137.15 7.25 137.70 7.10Q138.25 6.96 138.76 6.71Q139.27 6.47 139.73 6.14Q140.20 5.82 140.57 5.46L140.57 5.46Z"/><path fill="#ffffff" opacity="1" d="M161.63 9.64L158.41 9.64L158.41 7.47Q157.88 8.00 157.26 8.47Q156.64 8.95 155.94 9.31Q155.25 9.67 154.50 9.89Q153.76 10.11 153.01 10.11L153.01 10.11Q151.69 10.11 150.81 9.73Q149.92 9.36 149.39 8.63Q148.86 7.91 148.64 6.85Q148.41 5.79 148.41 4.43L148.41 4.43L148.41-6.08L151.63-6.08L151.63 2.88Q151.63 4.07 151.71 4.88Q151.78 5.70 152.02 6.20Q152.26 6.71 152.71 6.93Q153.16 7.16 153.90 7.16L153.90 7.16Q154.39 7.16 154.95 6.96Q155.52 6.77 156.11 6.44Q156.70 6.11 157.29 5.66Q157.87 5.22 158.41 4.73L158.41 4.73L158.41-6.08L161.63-6.08L161.63 9.64Z"/><path fill="#ffffff" opacity="1" d="M176.25 5.66L178.77 7.31Q178.35 7.95 177.81 8.47Q177.27 8.98 176.55 9.35Q175.84 9.72 174.94 9.91Q174.03 10.11 172.90 10.11L172.90 10.11Q170.93 10.11 169.53 9.51Q168.14 8.91 167.25 7.82Q166.37 6.72 165.96 5.21Q165.56 3.69 165.56 1.85L165.56 1.85Q165.56-0.07 165.99-1.62Q166.41-3.17 167.30-4.26Q168.18-5.35 169.55-5.94Q170.91-6.53 172.78-6.53L172.78-6.53Q174.78-6.53 176.25-5.84Q177.72-5.15 178.56-3.74L178.56-3.74L176.04-2.05Q175.51-2.86 174.75-3.28Q173.98-3.71 172.81-3.71L172.81-3.71Q170.79-3.71 169.84-2.37Q168.89-1.03 168.89 1.85L168.89 1.85Q168.89 3.17 169.10 4.19Q169.31 5.21 169.78 5.90Q170.25 6.59 171.03 6.95Q171.81 7.31 172.93 7.31L172.93 7.31Q173.46 7.31 173.92 7.22Q174.37 7.14 174.78 6.95Q175.18 6.75 175.54 6.44Q175.90 6.12 176.25 5.66L176.25 5.66Z"/><path fill="#ffffff" opacity="1" d="M185.54-10.22L185.54-10.22Q185.54-9.23 185.07-8.85Q184.60-8.46 183.61-8.46L183.61-8.46Q182.53-8.46 182.12-8.91Q181.70-9.36 181.70-10.22L181.70-10.22Q181.70-11.15 182.14-11.56Q182.57-11.97 183.61-11.97L183.61-11.97Q184.64-11.97 185.09-11.57Q185.54-11.16 185.54-10.22ZM185.24 9.64L182.02 9.64L182.02-6.08L185.24-6.08L185.24 9.64Z"/><path fill="#ffffff" opacity="1" d="M203.19 9.64L199.96 9.64L199.96 0.68Q199.96-0.49 199.89-1.31Q199.81-2.12 199.56-2.63Q199.32-3.14 198.87-3.37Q198.42-3.59 197.67-3.59L197.67-3.59Q197.17-3.59 196.61-3.40Q196.05-3.20 195.47-2.87Q194.90-2.53 194.31-2.09Q193.73-1.64 193.19-1.16L193.19-1.16L193.19 9.64L189.96 9.64L189.96-6.08L193.19-6.08L193.19-3.89Q193.70-4.40 194.33-4.88Q194.96-5.36 195.65-5.73Q196.35-6.10 197.09-6.31Q197.83-6.53 198.58-6.53L198.58-6.53Q199.90-6.53 200.79-6.16Q201.67-5.78 202.20-5.05Q202.74-4.33 202.96-3.27Q203.19-2.21 203.19-0.85L203.19-0.85L203.19 9.64Z"/><path fill="#ffffff" opacity="1" d="M220.96-6.08L220.96 9.34Q220.96 10.92 220.54 12.09Q220.12 13.26 219.22 14.03Q218.33 14.80 216.92 15.18Q215.51 15.57 213.54 15.57L213.54 15.57Q211.73 15.57 210.24 15.20Q208.75 14.83 207.58 14.16L207.58 14.16L208.63 11.55Q209.65 12.10 210.87 12.45Q212.09 12.81 213.54 12.81L213.54 12.81Q214.68 12.81 215.48 12.61Q216.27 12.42 216.77 12.01Q217.28 11.59 217.51 10.93Q217.74 10.27 217.74 9.34L217.74 9.34L217.74 7.77Q216.86 8.58 215.67 9.11Q214.49 9.64 213.05 9.64L213.05 9.64Q211.47 9.64 210.33 9.05Q209.18 8.46 208.44 7.40Q207.70 6.33 207.34 4.86Q206.99 3.39 206.99 1.62L206.99 1.62Q206.99 0.07 207.34-1.40Q207.70-2.87 208.47-4.01Q209.24-5.15 210.48-5.84Q211.71-6.53 213.48-6.53L213.48-6.53Q214.73-6.53 215.90-6.03Q217.07-5.53 217.97-4.69L217.97-4.69L218.21-6.08L220.96-6.08ZM217.74 5.01L217.74-2.11Q216.92-2.83 215.98-3.25Q215.04-3.68 213.99-3.68L213.99-3.68Q213.11-3.68 212.43-3.28Q211.74-2.89 211.27-2.19Q210.80-1.49 210.56-0.53Q210.32 0.43 210.32 1.56L210.32 1.56Q210.32 2.75 210.52 3.72Q210.71 4.68 211.12 5.36Q211.53 6.05 212.19 6.42Q212.84 6.80 213.75 6.80L213.75 6.80Q214.79 6.80 215.80 6.32Q216.81 5.84 217.74 5.01L217.74 5.01Z"/><path fill="#ffffff" opacity="1" d=""/><path fill="#ffffff" opacity="1" d="M243.16-6.01L242.52-2.92Q242.28-3.01 241.90-3.08Q241.52-3.16 241.11-3.16L241.11-3.16Q240.45-3.16 239.87-2.98Q239.28-2.80 238.75-2.49Q238.22-2.18 237.72-1.76Q237.23-1.34 236.75-0.88L236.75-0.88L236.75 9.64L233.53 9.64L233.53-6.08L236.75-6.08L236.75-3.68Q237.26-4.22 237.80-4.70Q238.34-5.18 238.93-5.54Q239.52-5.90 240.17-6.11Q240.81-6.32 241.53-6.32L241.53-6.32Q242.08-6.32 242.48-6.24Q242.88-6.16 243.16-6.01L243.16-6.01Z"/><path fill="#ffffff" opacity="1" d="M249.42-10.22L249.42-10.22Q249.42-9.23 248.94-8.85Q248.47-8.46 247.48-8.46L247.48-8.46Q246.40-8.46 245.99-8.91Q245.58-9.36 245.58-10.22L245.58-10.22Q245.58-11.15 246.01-11.56Q246.45-11.97 247.48-11.97L247.48-11.97Q248.52-11.97 248.97-11.57Q249.42-11.16 249.42-10.22ZM249.12 9.64L245.89 9.64L245.89-6.08L249.12-6.08L249.12 9.64Z"/><path fill="#ffffff" opacity="1" d="M265.18 5.28L265.18 5.28Q265.18 6.59 264.68 7.50Q264.18 8.41 263.33 9.00Q262.49 9.58 261.38 9.85Q260.27 10.11 259.05 10.11L259.05 10.11Q257.82 10.11 256.83 9.90Q255.83 9.69 255.05 9.32Q254.27 8.95 253.71 8.44Q253.15 7.94 252.79 7.34L252.79 7.34L255.25 5.69Q255.89 6.63 256.84 7.04Q257.78 7.44 258.96 7.44L258.96 7.44Q259.55 7.44 260.10 7.35Q260.66 7.26 261.08 7.03Q261.51 6.80 261.77 6.41Q262.04 6.02 262.04 5.43L262.04 5.43Q262.04 4.98 261.84 4.67Q261.65 4.35 261.23 4.11Q260.81 3.86 260.14 3.64Q259.47 3.42 258.53 3.20L258.53 3.20Q257.46 2.93 256.49 2.58Q255.52 2.24 254.77 1.68Q254.03 1.11 253.58 0.27Q253.13-0.58 253.13-1.84L253.13-1.84Q253.13-2.84 253.51-3.70Q253.88-4.55 254.64-5.18Q255.40-5.81 256.51-6.17Q257.63-6.53 259.11-6.53L259.11-6.53Q260.15-6.53 261.05-6.34Q261.96-6.14 262.70-5.78Q263.45-5.42 264.02-4.92Q264.59-4.42 264.94-3.80L264.94-3.80L262.49-2.14Q262.26-2.47 261.95-2.78Q261.63-3.10 261.20-3.34Q260.78-3.58 260.25-3.72Q259.71-3.86 259.05-3.86L259.05-3.86Q257.79-3.86 257.05-3.37Q256.30-2.89 256.30-1.96L256.30-1.96Q256.30-1.52 256.45-1.22Q256.61-0.92 256.96-0.68Q257.31-0.44 257.88-0.26Q258.45-0.07 259.26 0.13L259.26 0.13Q260.63 0.47 261.73 0.86Q262.83 1.25 263.60 1.82Q264.36 2.39 264.77 3.22Q265.18 4.05 265.18 5.28Z"/><path fill="#ffffff" opacity="1" d="M282.14 9.64L278.36 9.64L273.76 2.85L272.17 4.61L272.17 9.64L268.95 9.64L268.95-12.68L272.17-12.68L272.17 0.68L278.00-6.08L281.81-6.08L275.72 0.68L282.14 9.64Z"/><path fill="#ffffff" opacity="1" d="M296.23 5.28L296.23 5.28Q296.23 6.59 295.73 7.50Q295.23 8.41 294.38 9.00Q293.53 9.58 292.42 9.85Q291.31 10.11 290.10 10.11L290.10 10.11Q288.87 10.11 287.87 9.90Q286.88 9.69 286.10 9.32Q285.32 8.95 284.75 8.44Q284.19 7.94 283.83 7.34L283.83 7.34L286.29 5.69Q286.94 6.63 287.88 7.04Q288.82 7.44 290.01 7.44L290.01 7.44Q290.59 7.44 291.15 7.35Q291.70 7.26 292.13 7.03Q292.56 6.80 292.82 6.41Q293.08 6.02 293.08 5.43L293.08 5.43Q293.08 4.98 292.89 4.67Q292.69 4.35 292.27 4.11Q291.85 3.86 291.19 3.64Q290.52 3.42 289.57 3.20L289.57 3.20Q288.51 2.93 287.54 2.58Q286.56 2.24 285.82 1.68Q285.08 1.11 284.63 0.27Q284.18-0.58 284.18-1.84L284.18-1.84Q284.18-2.84 284.55-3.70Q284.93-4.55 285.68-5.18Q286.44-5.81 287.56-6.17Q288.67-6.53 290.16-6.53L290.16-6.53Q291.19-6.53 292.10-6.34Q293.01-6.14 293.75-5.78Q294.49-5.42 295.06-4.92Q295.63-4.42 295.99-3.80L295.99-3.80L293.53-2.14Q293.31-2.47 292.99-2.78Q292.68-3.10 292.25-3.34Q291.82-3.58 291.29-3.72Q290.76-3.86 290.10-3.86L290.10-3.86Q288.84-3.86 288.09-3.37Q287.34-2.89 287.34-1.96L287.34-1.96Q287.34-1.52 287.50-1.22Q287.66-0.92 288.01-0.68Q288.36-0.44 288.93-0.26Q289.50-0.07 290.31 0.13L290.31 0.13Q291.67 0.47 292.77 0.86Q293.88 1.25 294.64 1.82Q295.41 2.39 295.82 3.22Q296.23 4.05 296.23 5.28Z"/></g></g>
</g>
<g transform="matrix(0.5 0 0 0.5 83.80981318784973 234.9026411610355)"  >
<g style=""   >
		<g transform="matrix(0.43185428345189397 -1.0577e-16 1.0577e-16 0.43185428345189397 7.105427e-14 0)"  >
<path style="stroke: none; stroke-width: 0; stroke-dasharray: none; stroke-linecap: round; stroke-dashoffset: 0; stroke-linejoin: round; stroke-miterlimit: 4; fill: rgb(255,255,255); fill-rule: nonzero; opacity: 1;"  transform=" translate(-347.214464, -408.15557)" d="m 239.32338 158.15557 c -78.60067 0 -142.108912 63.50635 -142.108912 142.10701 l 0 215.78407 c 0 78.60067 63.508242 142.10892 142.108912 142.10892 l 215.78217 0 c 78.60067 0 142.10891 -63.50825 142.10891 -142.10892 l 0 -215.78407 c 0 -78.60066 -63.50824 -142.10701 -142.10891 -142.10701 l -215.78217 0 z" stroke-linecap="round" />
</g>
		<g transform="matrix(1.7191944507640045 0 0 1.7191944507640045 2.071418540529976 -3.8100026448796527)"  >
<path style="stroke: none; stroke-width: 0; stroke-dasharray: none; stroke-linecap: butt; stroke-dashoffset: 0; stroke-linejoin: miter; stroke-miterlimit: 4; fill: rgb(0,0,0); fill-rule: nonzero; opacity: 1;"  transform=" translate(-50.01707210100389, -49.992014649006265)" d="m 94.801 28.699 c -0.14062 -0.10156 -0.32031 -0.12109 -0.48047 -0.050781 l -9.7695 4.3281 c -0.16016 0.070313 -0.26953 0.21875 -0.28125 0.39063 c -0.019531 0.17187 0.050781 0.33984 0.19922 0.44141 l 3.2812 2.3906 l -19.82 25.91 c -0.55078 -0.21875 -1.1484 -0.33984 -1.7695 -0.33984 c -0.71875 0 -1.3984 0.16016 -2.0117 0.44141 l -8.8281 -9.6914 c 0.42969 -0.71875 0.67969 -1.5703 0.67969 -2.4688 c 0 -2.6484 -2.1602 -4.8086 -4.8086 -4.8086 c -2.6484 0 -4.8086 2.1602 -4.8086 4.8086 c 0 0.89062 0.25 1.7305 0.67188 2.4492 l -7.0703 7.7383 c -0.80078 -0.57812 -1.7812 -0.92969 -2.8398 -0.92969 c -0.92188 0 -1.7891 0.26172 -2.5195 0.71875 l -9.1719 -10.059 c 0.37891 -0.69141 0.60156 -1.4805 0.60156 -2.3203 c 0 -2.6484 -2.1602 -4.8086 -4.8086 -4.8086 c -2.6484 0 -4.8086 2.1602 -4.8086 4.8086 c 0 0.94922 0.28125 1.8398 0.76172 2.5781 l -11.82 12.949 c -0.51172 0.55859 -0.46875 1.4414 0.089844 1.9492 c 0.26953 0.23828 0.60156 0.35938 0.92969 0.35938 c 0.37109 0 0.75 -0.14844 1.0195 -0.44922 l 11.871 -13 c 0.60156 0.26953 1.2617 0.42188 1.9609 0.42188 c 0.80859 0 1.5703 -0.19922 2.2383 -0.55078 l 9.3008 10.199 c -0.28125 0.60938 -0.44141 1.3008 -0.44141 2.0195 c 0 2.6484 2.1602 4.8086 4.8086 4.8086 s 4.8086 -2.1602 4.8086 -4.8086 c 0 -0.57031 -0.10156 -1.1211 -0.28125 -1.6289 l 7.4102 -8.1211 c 0.64062 0.30859 1.3516 0.48828 2.1094 0.48828 c 0.76172 0 1.4609 -0.17188 2.0898 -0.48047 l 8.7891 9.6484 c -0.46094 0.73828 -0.73047 1.6094 -0.73047 2.5391 c 0 2.6484 2.1602 4.8086 4.8086 4.8086 c 2.6484 0 4.8086 -2.1602 4.8086 -4.8086 c 0 -1.0195 -0.32031 -1.9688 -0.87109 -2.75 l 19.891 -26 l 3.1289 2.2812 c 0.078124 0.058594 0.17969 0.089844 0.28125 0.089844 c 0.070312 0 0.12891 -0.011718 0.19922 -0.039062 c 0.16016 -0.070313 0.26953 -0.21875 0.28125 -0.39062 l 1.1289 -10.629 c 0.019532 -0.17187 -0.050781 -0.33984 -0.19922 -0.44141 z" stroke-linecap="round" />
</g>
</g>
</g>
</svg>