<?xml version="1.0" encoding="UTF-8" standalone="no" ?>
<!DOCTYPE svg PUBLIC "-//W3C//DTD SVG 1.1//EN" "http://www.w3.org/Graphics/SVG/1.1/DTD/svg11.dtd">
<svg xmlns="http://www.w3.org/2000/svg" xmlns:xlink="http://www.w3.org/1999/xlink" version="1.1" width="500" height="500" viewBox="0 0 500 500" xml:space="preserve">
<desc>Created with Fabric.js 3.6.3</desc>
<defs>
</defs>
<g transform="matrix(0.00005 0 0 0.00005 0 0)"  >
<g style=""   >
</g>
</g>
<g transform="matrix(0.00005 0 0 0.00005 0 0)"  >
<g style=""   >
</g>
</g>
<g transform="matrix(0.00005 0 0 0.00005 0 0)"  >
<g style=""   >
</g>
</g>
<g transform="matrix(0.00005 0 0 0.00005 0 0)"  >
<g style=""   >
</g>
</g>
<g transform="matrix(0.00005 0 0 0.00005 0 0)"  >
<g style=""   >
</g>
</g>
<g transform="matrix(0.00005 0 0 0.00005 0 0)"  >
<g style=""   >
</g>
</g>
<g transform="matrix(0.00005 0 0 0.00005 0 0)"  >
<g style=""   >
</g>
</g>
<g transform="matrix(0.00005 0 0 0.00005 0 0)"  >
<g style=""   >
</g>
</g>
<g transform="matrix(0.00005 0 0 0.00005 0 0)"  >
<g style=""   >
</g>
</g>
<g transform="matrix(0.00005 0 0 0.00005 0 0)"  >
<g style=""   >
</g>
</g>
<g transform="matrix(0.00005 0 0 0.00005 0 0)"  >
<g style=""   >
</g>
</g>
<g transform="matrix(0.00005 0 0 0.00005 0 0)"  >
<g style=""   >
</g>
</g>
<g transform="matrix(0.00005 0 0 0.00005 0 0)"  >
<g style=""   >
</g>
</g>
<g transform="matrix(0.00005 0 0 0.00005 0 0)"  >
<g style=""   >
</g>
</g>
<g transform="matrix(0.00005 0 0 0.00005 0 0)"  >
<g style=""   >
</g>
</g>
<g transform="matrix(0.00005 0 0 0.00005 0 0)"  >
<g style=""   >
</g>
</g>
<g transform="matrix(0.00005 0 0 0.00005 0 0)"  >
<g style=""   >
</g>
</g>
<g transform="matrix(0.00005 0 0 0.00005 0 0)"  >
<g style=""   >
</g>
</g>
<g transform="matrix(0.00005 0 0 0.00005 0 0)"  >
<g style=""   >
</g>
</g>
<g transform="matrix(0.00005 0 0 0.00005 0 0)"  >
<g style=""   >
</g>
</g>
<g transform="matrix(0.00005 0 0 0.00005 0 0)"  >
<g style=""   >
</g>
</g>
<g transform="matrix(0.00005 0 0 0.00005 0 0)"  >
<g style=""   >
</g>
</g>
<g transform="matrix(0.00005 0 0 0.00005 0 0)"  >
<g style=""   >
</g>
</g>
<g transform="matrix(0.00005 0 0 0.00005 0 0)"  >
<g style=""   >
</g>
</g>
<g transform="matrix(0.00005 0 0 0.00005 0 0)"  >
<g style=""   >
</g>
</g>
<g transform="matrix(0.00005 0 0 0.00005 0 0)"  >
<g style=""   >
</g>
</g>
<g transform="matrix(0.00005 0 0 0.00005 0 0)"  >
<g style=""   >
</g>
</g>
<g transform="matrix(0.00005 0 0 0.00005 0 0)"  >
<g style=""   >
</g>
</g>
<g transform="matrix(0.9778662189832297 -2.3951e-16 2.3951e-16 0.9778662189832297 249.99999999999991 250)"  >
<path style="stroke: none; stroke-width: 0; stroke-dasharray: none; stroke-linecap: round; stroke-dashoffset: 0; stroke-linejoin: round; stroke-miterlimit: 4; fill: rgb(0,0,0); fill-rule: nonzero; opacity: 1;"  transform=" translate(-347.214464, -408.15557)" d="m 239.32338 158.15557 c -78.60067 0 -142.108912 63.50635 -142.108912 142.10701 l 0 215.78407 c 0 78.60067 63.508242 142.10892 142.108912 142.10892 l 215.78217 0 c 78.60067 0 142.10891 -63.50825 142.10891 -142.10892 l 0 -215.78407 c 0 -78.60066 -63.50824 -142.10701 -142.10891 -142.10701 l -215.78217 0 z" stroke-linecap="round" />
</g>
<g transform="matrix(3.8928459012328323 0 0 3.8928459012328323 254.69040204943516 241.37284722317756)"  >
<path style="stroke: none; stroke-width: 0; stroke-dasharray: none; stroke-linecap: butt; stroke-dashoffset: 0; stroke-linejoin: miter; stroke-miterlimit: 4; fill: rgb(255,255,255); fill-rule: nonzero; opacity: 1;"  transform=" translate(-50.01707210100389, -49.992014649006265)" d="m 94.801 28.699 c -0.14062 -0.10156 -0.32031 -0.12109 -0.48047 -0.050781 l -9.7695 4.3281 c -0.16016 0.070313 -0.26953 0.21875 -0.28125 0.39063 c -0.019531 0.17187 0.050781 0.33984 0.19922 0.44141 l 3.2812 2.3906 l -19.82 25.91 c -0.55078 -0.21875 -1.1484 -0.33984 -1.7695 -0.33984 c -0.71875 0 -1.3984 0.16016 -2.0117 0.44141 l -8.8281 -9.6914 c 0.42969 -0.71875 0.67969 -1.5703 0.67969 -2.4688 c 0 -2.6484 -2.1602 -4.8086 -4.8086 -4.8086 c -2.6484 0 -4.8086 2.1602 -4.8086 4.8086 c 0 0.89062 0.25 1.7305 0.67188 2.4492 l -7.0703 7.7383 c -0.80078 -0.57812 -1.7812 -0.92969 -2.8398 -0.92969 c -0.92188 0 -1.7891 0.26172 -2.5195 0.71875 l -9.1719 -10.059 c 0.37891 -0.69141 0.60156 -1.4805 0.60156 -2.3203 c 0 -2.6484 -2.1602 -4.8086 -4.8086 -4.8086 c -2.6484 0 -4.8086 2.1602 -4.8086 4.8086 c 0 0.94922 0.28125 1.8398 0.76172 2.5781 l -11.82 12.949 c -0.51172 0.55859 -0.46875 1.4414 0.089844 1.9492 c 0.26953 0.23828 0.60156 0.35938 0.92969 0.35938 c 0.37109 0 0.75 -0.14844 1.0195 -0.44922 l 11.871 -13 c 0.60156 0.26953 1.2617 0.42188 1.9609 0.42188 c 0.80859 0 1.5703 -0.19922 2.2383 -0.55078 l 9.3008 10.199 c -0.28125 0.60938 -0.44141 1.3008 -0.44141 2.0195 c 0 2.6484 2.1602 4.8086 4.8086 4.8086 s 4.8086 -2.1602 4.8086 -4.8086 c 0 -0.57031 -0.10156 -1.1211 -0.28125 -1.6289 l 7.4102 -8.1211 c 0.64062 0.30859 1.3516 0.48828 2.1094 0.48828 c 0.76172 0 1.4609 -0.17188 2.0898 -0.48047 l 8.7891 9.6484 c -0.46094 0.73828 -0.73047 1.6094 -0.73047 2.5391 c 0 2.6484 2.1602 4.8086 4.8086 4.8086 c 2.6484 0 4.8086 -2.1602 4.8086 -4.8086 c 0 -1.0195 -0.32031 -1.9688 -0.87109 -2.75 l 19.891 -26 l 3.1289 2.2812 c 0.078124 0.058594 0.17969 0.089844 0.28125 0.089844 c 0.070312 0 0.12891 -0.011718 0.19922 -0.039062 c 0.16016 -0.070313 0.26953 -0.21875 0.28125 -0.39062 l 1.1289 -10.629 c 0.019532 -0.17187 -0.050781 -0.33984 -0.19922 -0.44141 z" stroke-linecap="round" />
</g>
</svg>