<?xml version="1.0" encoding="UTF-8"?>
<svg xmlns="http://www.w3.org/2000/svg" viewBox="0 0 30 20" width="900" height="600">
    <rect width="30" height="20" fill="#de2910"/>
    <g fill="#ffde00">
        <polygon points="5,2 5.5878,3.809 7.5,3.809 5.9511,4.9271 6.538,6.736 5,5.618 3.462,6.736 4.0489,4.9271 2.5,3.809 4.4122,3.809"/>
        <polygon points="10,1 10.309,1.9511 11.25,2.25 10.309,2.5489 10,3.5 9.691,2.5489 8.75,2.25 9.691,1.9511"/>
        <polygon points="11,2.5 11.309,3.4511 12.25,3.75 11.309,4.0489 11,5 10.691,4.0489 9.75,3.75 10.691,3.4511"/>
        <polygon points="11,4.5 11.309,5.4511 12.25,5.75 11.309,6.0489 11,7 10.691,6.0489 9.75,5.75 10.691,5.4511"/>
        <polygon points="10,6 10.309,6.9511 11.25,7.25 10.309,7.5489 10,8.5 9.691,7.5489 8.75,7.25 9.691,6.9511"/>
    </g>
</svg>
