<?xml version="1.0" encoding="UTF-8" standalone="no" ?>
<!DOCTYPE svg PUBLIC "-//W3C//DTD SVG 1.1//EN" "http://www.w3.org/Graphics/SVG/1.1/DTD/svg11.dtd">
<svg xmlns="http://www.w3.org/2000/svg" width="430" height="120" viewBox="25 175 430 120">
<desc>Created with Fabric.js 3.6.3</desc>
<defs>
</defs>
<g transform="matrix(0.00005 0 0 0.00005 0 0)"  >
<g style=""   >
</g>
</g>
<g transform="matrix(0.00005 0 0 0.00005 0 0)"  >
<g style=""   >
</g>
</g>
<g transform="matrix(0.00005 0 0 0.00005 0 0)"  >
<g style=""   >
</g>
</g>
<g transform="matrix(0.00005 0 0 0.00005 0 0)"  >
<g style=""   >
</g>
</g>
<g transform="matrix(0.00005 0 0 0.00005 0 0)"  >
<g style=""   >
</g>
</g>
<g transform="matrix(0.00005 0 0 0.00005 0 0)"  >
<g style=""   >
</g>
</g>
<g transform="matrix(0.00005 0 0 0.00005 0 0)"  >
<g style=""   >
</g>
</g>
<g transform="matrix(0.00005 0 0 0.00005 0 0)"  >
<g style=""   >
</g>
</g>
<g transform="matrix(0.00005 0 0 0.00005 0 0)"  >
<g style=""   >
</g>
</g>
<g transform="matrix(0.00005 0 0 0.00005 0 0)"  >
<g style=""   >
</g>
</g>
<g transform="matrix(0.00005 0 0 0.00005 0 0)"  >
<g style=""   >
</g>
</g>
<g transform="matrix(0.00005 0 0 0.00005 0 0)"  >
<g style=""   >
</g>
</g>
<g transform="matrix(0.00005 0 0 0.00005 0 0)"  >
<g style=""   >
</g>
</g>
<g transform="matrix(0.00005 0 0 0.00005 0 0)"  >
<g style=""   >
</g>
</g>
<g transform="matrix(0.00005 0 0 0.00005 0 0)"  >
<g style=""   >
</g>
</g>
<g transform="matrix(0.00005 0 0 0.00005 0 0)"  >
<g style=""   >
</g>
</g>
<g transform="matrix(0.00005 0 0 0.00005 0 0)"  >
<g style=""   >
</g>
</g>
<g transform="matrix(0.00005 0 0 0.00005 0 0)"  >
<g style=""   >
</g>
</g>
<g transform="matrix(0.00005 0 0 0.00005 0 0)"  >
<g style=""   >
</g>
</g>
<g transform="matrix(0.00005 0 0 0.00005 0 0)"  >
<g style=""   >
</g>
</g>
<g transform="matrix(0.00005 0 0 0.00005 0 0)"  >
<g style=""   >
</g>
</g>
<g transform="matrix(0.00005 0 0 0.00005 0 0)"  >
<g style=""   >
</g>
</g>
<g transform="matrix(0.00005 0 0 0.00005 0 0)"  >
<g style=""   >
</g>
</g>
<g transform="matrix(0.00005 0 0 0.00005 0 0)"  >
<g style=""   >
</g>
</g>
<g transform="matrix(0.00005 0 0 0.00005 0 0)"  >
<g style=""   >
</g>
</g>
<g transform="matrix(0.00005 0 0 0.00005 0 0)"  >
<g style=""   >
</g>
</g>
<g transform="matrix(0.00005 0 0 0.00005 0 0)"  >
<g style=""   >
</g>
</g>
<g transform="matrix(0.00005 0 0 0.00005 0 0)"  >
<g style=""   >
</g>
</g>
<g transform="matrix(1 0 0 1 305.44746254453594 235.15264116103555)" style=""  ><path fill="#ffffff" opacity="1" d="M-116.36 17.67L-122.79 17.67L-122.79 0.92L-138.94 0.92L-138.94 17.67L-145.34 17.67L-145.34-20.34L-138.94-20.34L-138.94-4.93L-122.79-4.93L-122.79-20.34L-116.36-20.34L-116.36 17.67Z"/><path fill="#ffffff" opacity="1" d="M-82.47 3.33L-82.47 3.33Q-82.47 6.85-83.22 9.65Q-83.98 12.45-85.58 14.43Q-87.19 16.41-89.69 17.46Q-92.19 18.52-95.68 18.52L-95.68 18.52Q-99.19 18.52-101.72 17.45Q-104.25 16.38-105.85 14.40Q-107.46 12.42-108.22 9.62Q-108.97 6.82-108.97 3.33L-108.97 3.33Q-108.97-0.21-108.20-3.04Q-107.43-5.87-105.83-7.86Q-104.22-9.85-101.71-10.91Q-99.19-11.97-95.68-11.97L-95.68-11.97Q-92.19-11.97-89.69-10.91Q-87.19-9.85-85.58-7.86Q-83.98-5.87-83.22-3.04Q-82.47-0.21-82.47 3.33ZM-88.59 3.33L-88.59 3.33Q-88.59-1.80-90.25-4.30Q-91.91-6.80-95.68-6.80L-95.68-6.80Q-99.44-6.80-101.16-4.30Q-102.87-1.80-102.87 3.33L-102.87 3.33Q-102.87 8.33-101.18 10.86Q-99.49 13.39-95.68 13.39L-95.68 13.39Q-91.97 13.39-90.28 10.86Q-88.59 8.33-88.59 3.33Z"/><path fill="#ffffff" opacity="1" d="M-57.58-11.00L-58.76-5.35Q-59.20-5.51-59.90-5.65Q-60.60-5.79-61.34-5.79L-61.34-5.79Q-62.55-5.79-63.62-5.46Q-64.70-5.13-65.67-4.56Q-66.65-4.00-67.55-3.23Q-68.46-2.46-69.34-1.61L-69.34-1.61L-69.34 17.67L-75.24 17.67L-75.24-11.14L-69.34-11.14L-69.34-6.75Q-68.40-7.74-67.41-8.61Q-66.43-9.49-65.34-10.15Q-64.26-10.81-63.08-11.20Q-61.89-11.58-60.58-11.58L-60.58-11.58Q-59.56-11.58-58.83-11.43Q-58.10-11.28-57.58-11.00L-57.58-11.00Z"/><path fill="#ffffff" opacity="1" d="M-46.13-18.72L-46.13-18.72Q-46.13-16.91-46.99-16.21Q-47.86-15.51-49.67-15.51L-49.67-15.51Q-51.65-15.51-52.40-16.33Q-53.16-17.16-53.16-18.72L-53.16-18.72Q-53.16-20.42-52.36-21.18Q-51.57-21.94-49.67-21.94L-49.67-21.94Q-47.78-21.94-46.95-21.19Q-46.13-20.45-46.13-18.72ZM-46.68 17.67L-52.58 17.67L-52.58-11.14L-46.68-11.14L-46.68 17.67Z"/><path fill="#ffffff" opacity="1" d="M-18.69 17.67L-40.44 17.67L-40.44 13.28L-26.22-6.33L-40.11-6.33L-40.11-11.14L-19.13-11.14L-19.13-6.86L-33.41 12.89L-18.69 12.89L-18.69 17.67Z"/><path fill="#ffffff" opacity="1" d="M12.59 3.33L12.59 3.33Q12.59 6.85 11.84 9.65Q11.08 12.45 9.48 14.43Q7.87 16.41 5.37 17.46Q2.87 18.52-0.62 18.52L-0.62 18.52Q-4.13 18.52-6.66 17.45Q-9.19 16.38-10.79 14.40Q-12.40 12.42-13.16 9.62Q-13.91 6.82-13.91 3.33L-13.91 3.33Q-13.91-0.21-13.14-3.04Q-12.37-5.87-10.77-7.86Q-9.16-9.85-6.65-10.91Q-4.13-11.97-0.62-11.97L-0.62-11.97Q2.87-11.97 5.37-10.91Q7.87-9.85 9.48-7.86Q11.08-5.87 11.84-3.04Q12.59-0.21 12.59 3.33ZM6.47 3.33L6.47 3.33Q6.47-1.80 4.81-4.30Q3.14-6.80-0.62-6.80L-0.62-6.80Q-4.38-6.80-6.10-4.30Q-7.81-1.80-7.81 3.33L-7.81 3.33Q-7.81 8.33-6.12 10.86Q-4.44 13.39-0.62 13.39L-0.62 13.39Q3.09 13.39 4.78 10.86Q6.47 8.33 6.47 3.33Z"/><path fill="#ffffff" opacity="1" d="M44.04 17.67L38.14 17.67L38.14 1.25Q38.14-0.90 38.00-2.39Q37.86-3.89 37.41-4.82Q36.96-5.76 36.13-6.17Q35.31-6.58 33.93-6.58L33.93-6.58Q33.03-6.58 32.00-6.22Q30.97-5.87 29.91-5.25Q28.85-4.63 27.78-3.82Q26.71-3.01 25.72-2.13L25.72-2.13L25.72 17.67L19.82 17.67L19.82-11.14L25.72-11.14L25.72-7.13Q26.66-8.07 27.81-8.94Q28.96-9.82 30.24-10.50Q31.52-11.17 32.88-11.57Q34.24-11.97 35.61-11.97L35.61-11.97Q38.03-11.97 39.65-11.28Q41.27-10.59 42.24-9.26Q43.22-7.93 43.63-5.99Q44.04-4.06 44.04-1.56L44.04-1.56L44.04 17.67Z"/><path fill="#ffffff" opacity="1" d="M79.88-14.49L67.74-14.49L67.74 17.67L61.32 17.67L61.32-14.49L49.18-14.49L49.18-20.34L79.88-20.34L79.88-14.49Z"/><path fill="#ffffff" opacity="1" d="M111.39 6.99L111.39 6.99Q111.39 10.20 110.25 12.38Q109.11 14.57 107.16 15.93Q105.21 17.29 102.61 17.88Q100.02 18.47 97.11 18.47L97.11 18.47Q94.03 18.47 91.72 17.89Q89.41 17.31 87.68 16.32Q85.95 15.34 84.73 14.02Q83.51 12.70 82.60 11.19L82.60 11.19L87.66 7.54Q88.34 8.61 89.18 9.55Q90.02 10.50 91.13 11.22Q92.24 11.93 93.73 12.36Q95.21 12.78 97.16 12.78L97.16 12.78Q98.62 12.78 100.00 12.51Q101.39 12.23 102.46 11.60Q103.53 10.97 104.18 9.95Q104.82 8.94 104.82 7.43L104.82 7.43Q104.82 6.00 104.21 5.04Q103.59 4.07 102.54 3.42Q101.50 2.76 100.10 2.32Q98.70 1.88 97.11 1.47L97.11 1.47Q94.19 0.72 91.69-0.06Q89.20-0.84 87.36-2.05Q85.51-3.26 84.46-5.13Q83.40-6.99 83.40-9.91L83.40-9.91Q83.40-12.49 84.28-14.56Q85.16-16.63 86.86-18.10Q88.56-19.57 91.10-20.36Q93.64-21.14 96.94-21.14L96.94-21.14Q99.41-21.14 101.46-20.69Q103.50-20.23 105.17-19.37Q106.83-18.50 108.15-17.22Q109.47-15.95 110.45-14.33L110.45-14.33L105.48-10.62Q103.97-13.04 101.91-14.24Q99.85-15.45 96.89-15.45L96.89-15.45Q93.67-15.45 91.79-14.14Q89.91-12.82 89.91-10.40L89.91-10.40Q89.91-9.19 90.42-8.38Q90.93-7.57 91.98-6.97Q93.04-6.36 94.65-5.88Q96.25-5.40 98.45-4.88L98.45-4.88Q100.15-4.47 101.76-4.00Q103.37-3.53 104.81-2.92Q106.25-2.30 107.46-1.46Q108.67-0.62 109.53 0.56Q110.40 1.74 110.89 3.32Q111.39 4.90 111.39 6.99Z"/><path fill="#ffffff" opacity="1" d="M147.07-1.34L147.07-1.34Q147.07 4.27 145.91 7.95Q144.76 11.63 142.47 13.78Q140.17 15.94 136.79 16.81Q133.42 17.67 128.97 17.67L128.97 17.67L118.34 17.67L118.34-20.34L128.86-20.34Q133.42-20.34 136.83-19.38Q140.25-18.42 142.53-16.19Q144.81-13.97 145.94-10.33Q147.07-6.69 147.07-1.34ZM140.36-1.39L140.36-1.39Q140.36-5.24 139.76-7.76Q139.16-10.29 137.75-11.79Q136.35-13.28 134.05-13.89Q131.74-14.49 128.33-14.49L128.33-14.49L124.74-14.49L124.74 11.82L128.33 11.82Q131.79 11.82 134.10 11.17Q136.41 10.53 137.81 9.00Q139.21 7.48 139.79 4.94Q140.36 2.40 140.36-1.39Z"/></g><g transform="matrix(0.21592714172594699 -5.289e-17 5.289e-17 0.21592714172594699 83.80981318784966 234.9026411610355)"  >
<path style="stroke: none; stroke-width: 0; stroke-dasharray: none; stroke-linecap: round; stroke-dashoffset: 0; stroke-linejoin: round; stroke-miterlimit: 4; fill: rgb(255,255,255); fill-rule: nonzero; opacity: 1;"  transform=" translate(-347.214464, -408.15557)" d="m 239.32338 158.15557 c -78.60067 0 -142.108912 63.50635 -142.108912 142.10701 l 0 215.78407 c 0 78.60067 63.508242 142.10892 142.108912 142.10892 l 215.78217 0 c 78.60067 0 142.10891 -63.50825 142.10891 -142.10892 l 0 -215.78407 c 0 -78.60066 -63.50824 -142.10701 -142.10891 -142.10701 l -215.78217 0 z" stroke-linecap="round" />
</g>
<g transform="matrix(0.8595972253820022 0 0 0.8595972253820022 84.84552245811471 232.99763983859566)"  >
<path style="stroke: none; stroke-width: 0; stroke-dasharray: none; stroke-linecap: butt; stroke-dashoffset: 0; stroke-linejoin: miter; stroke-miterlimit: 4; fill: rgb(0,0,0); fill-rule: nonzero; opacity: 1;"  transform=" translate(-50.01707210100389, -49.992014649006265)" d="m 94.801 28.699 c -0.14062 -0.10156 -0.32031 -0.12109 -0.48047 -0.050781 l -9.7695 4.3281 c -0.16016 0.070313 -0.26953 0.21875 -0.28125 0.39063 c -0.019531 0.17187 0.050781 0.33984 0.19922 0.44141 l 3.2812 2.3906 l -19.82 25.91 c -0.55078 -0.21875 -1.1484 -0.33984 -1.7695 -0.33984 c -0.71875 0 -1.3984 0.16016 -2.0117 0.44141 l -8.8281 -9.6914 c 0.42969 -0.71875 0.67969 -1.5703 0.67969 -2.4688 c 0 -2.6484 -2.1602 -4.8086 -4.8086 -4.8086 c -2.6484 0 -4.8086 2.1602 -4.8086 4.8086 c 0 0.89062 0.25 1.7305 0.67188 2.4492 l -7.0703 7.7383 c -0.80078 -0.57812 -1.7812 -0.92969 -2.8398 -0.92969 c -0.92188 0 -1.7891 0.26172 -2.5195 0.71875 l -9.1719 -10.059 c 0.37891 -0.69141 0.60156 -1.4805 0.60156 -2.3203 c 0 -2.6484 -2.1602 -4.8086 -4.8086 -4.8086 c -2.6484 0 -4.8086 2.1602 -4.8086 4.8086 c 0 0.94922 0.28125 1.8398 0.76172 2.5781 l -11.82 12.949 c -0.51172 0.55859 -0.46875 1.4414 0.089844 1.9492 c 0.26953 0.23828 0.60156 0.35938 0.92969 0.35938 c 0.37109 0 0.75 -0.14844 1.0195 -0.44922 l 11.871 -13 c 0.60156 0.26953 1.2617 0.42188 1.9609 0.42188 c 0.80859 0 1.5703 -0.19922 2.2383 -0.55078 l 9.3008 10.199 c -0.28125 0.60938 -0.44141 1.3008 -0.44141 2.0195 c 0 2.6484 2.1602 4.8086 4.8086 4.8086 s 4.8086 -2.1602 4.8086 -4.8086 c 0 -0.57031 -0.10156 -1.1211 -0.28125 -1.6289 l 7.4102 -8.1211 c 0.64062 0.30859 1.3516 0.48828 2.1094 0.48828 c 0.76172 0 1.4609 -0.17188 2.0898 -0.48047 l 8.7891 9.6484 c -0.46094 0.73828 -0.73047 1.6094 -0.73047 2.5391 c 0 2.6484 2.1602 4.8086 4.8086 4.8086 c 2.6484 0 4.8086 -2.1602 4.8086 -4.8086 c 0 -1.0195 -0.32031 -1.9688 -0.87109 -2.75 l 19.891 -26 l 3.1289 2.2812 c 0.078124 0.058594 0.17969 0.089844 0.28125 0.089844 c 0.070312 0 0.12891 -0.011718 0.19922 -0.039062 c 0.16016 -0.070313 0.26953 -0.21875 0.28125 -0.39062 l 1.1289 -10.629 c 0.019532 -0.17187 -0.050781 -0.33984 -0.19922 -0.44141 z" stroke-linecap="round" />
</g>
</svg>